<svg xmlns="http://www.w3.org/2000/svg" width="35" height="35" viewBox="0 0 35 35" fill="none">
    <path fill-rule="evenodd" clip-rule="evenodd" d="M17 9.80642C16.4013 10.4151 15.6696 10.9245 14.8995 11.3298C12.9244 12.3693 10.2981 12.9678 7.47813 12.9678C6.66178 12.9678 6 12.306 6 11.4896C6 10.6733 6.66178 10.0115 7.47813 10.0115C9.91693 10.0115 12.0515 9.48804 13.5227 8.71377C15.062 7.90357 15.5218 7.0402 15.5218 6.47813C15.5218 5.66178 16.1836 5 17 5C17 5 17 5 17 5C17 5 17 5 17 5C17.8164 5 18.4782 5.66178 18.4782 6.47813C18.4782 7.0402 18.938 7.90357 20.4773 8.71377C21.9485 9.48804 24.0831 10.0115 26.5219 10.0115C27.3382 10.0115 28 10.6733 28 11.4896C28 12.306 27.3382 12.9678 26.5219 12.9678C23.7019 12.9678 21.0756 12.3693 19.1005 11.3298C18.3304 10.9245 17.5987 10.4151 17 9.80642Z" fill="#E2E2E2"/>
    <path fill-rule="evenodd" clip-rule="evenodd" d="M10.7607 13.8687L10.767 13.8687H16.5109C17.8342 13.8687 18.9069 14.9414 18.9069 16.2646C18.9069 17.5878 17.8342 18.6605 16.5109 18.6605H13.7169C13.4075 18.6605 13.1566 18.9114 13.1566 19.2208C13.1566 19.5303 13.4075 19.7812 13.7169 19.7812H16.5436C17.8497 19.7812 18.9086 20.84 18.9086 22.1462C18.9086 23.4523 17.8497 24.5112 16.5436 24.5112H11.2223C10.7272 24.5112 10.2259 24.403 9.77471 24.1991C8.94328 23.8232 8.36475 22.9866 8.36475 22.0148V16.2646C8.36475 14.9413 9.43744 13.8687 10.7607 13.8687Z" fill="#F5F5F5"/>
    <path d="M15.9527 24.9054C15.9527 22.0029 18.3057 19.6499 21.2083 19.6499C24.1109 19.6499 26.4639 22.0029 26.4639 24.9054C26.4639 27.808 24.1109 30.161 21.2083 30.161C18.3057 30.161 15.9527 27.808 15.9527 24.9054Z" fill="#EFEFEF"/>
</svg>