<svg xmlns="http://www.w3.org/2000/svg" width="35" height="35" viewBox="0 0 34 35" fill="none">
    <path fill-rule="evenodd" clip-rule="evenodd" d="M17 9.80642C16.4013 10.4151 15.6696 10.9245 14.8995 11.3298C12.9244 12.3693 10.2981 12.9678 7.47813 12.9678C6.66178 12.9678 6 12.306 6 11.4896C6 10.6733 6.66178 10.0115 7.47813 10.0115C9.91693 10.0115 12.0515 9.48804 13.5227 8.71377C15.062 7.90357 15.5218 7.0402 15.5218 6.47813C15.5218 5.66178 16.1836 5 17 5C17 5 17 5 17 5C17 5 17 5 17 5C17.8164 5 18.4782 5.66178 18.4782 6.47813C18.4782 7.0402 18.938 7.90357 20.4773 8.71377C21.9485 9.48804 24.0831 10.0115 26.5219 10.0115C27.3382 10.0115 28 10.6733 28 11.4896C28 12.306 27.3382 12.9678 26.5219 12.9678C23.7019 12.9678 21.0756 12.3693 19.1005 11.3298C18.3304 10.9245 17.5987 10.4151 17 9.80642Z" fill="#AC7A73"/>
    <path fill-rule="evenodd" clip-rule="evenodd" d="M10.7607 13.8688L10.767 13.8688H16.5109C17.8342 13.8688 18.9069 14.9415 18.9069 16.2647C18.9069 17.5879 17.8342 18.6606 16.5109 18.6606H13.7169C13.4075 18.6606 13.1566 18.9115 13.1566 19.221C13.1566 19.5304 13.4075 19.7813 13.7169 19.7813H16.5436C17.8497 19.7813 18.9086 20.8401 18.9086 22.1463C18.9086 23.4525 17.8497 24.5113 16.5436 24.5113H11.2223C10.7272 24.5113 10.2259 24.4032 9.77471 24.1992C8.94328 23.8233 8.36475 22.9867 8.36475 22.0149V16.2647C8.36475 14.9415 9.43744 13.8688 10.7607 13.8688Z" fill="#742215"/>
    <path d="M15.9528 24.9054C15.9528 22.0029 18.3058 19.6499 21.2084 19.6499C24.111 19.6499 26.464 22.0029 26.464 24.9054C26.464 27.808 24.111 30.161 21.2084 30.161C18.3058 30.161 15.9528 27.808 15.9528 24.9054Z" fill="#E3D3D0"/>
</svg>