<svg xmlns="http://www.w3.org/2000/svg" width="22" height="27" viewBox="0 0 22 27" fill="none">
    <path d="M4 18.1414C2.14864 16.3265 1 13.7974 1 11C1 5.47715 5.47715 1 11 1C16.5228 1 21 5.47715 21 11C21 13.7974 19.8514 16.3265 18 18.1414" stroke="#742215" stroke-width="2" stroke-linecap="round"/>
    <path d="M16.5877 12.197C17.3575 12.197 17.8386 13.0303 17.4537 13.697L15.4097 17.2373C15.0248 17.9039 14.0626 17.9039 13.6777 17.2373L11.6337 13.697C11.2488 13.0303 11.7299 12.197 12.4997 12.197L16.5877 12.197Z" fill="#E3D3D0"/>
    <rect x="6.74219" y="6.75787" width="5.5157" height="5.5157" rx="1" transform="rotate(-30 6.74219 6.75787)" fill="#742215"/>
    <ellipse cx="7.26119" cy="11.5154" rx="3.09469" ry="3.09469" fill="#AC7A73"/>
    <path d="M3.80249 25.1412C3.80249 22.8008 5.69971 20.9036 8.04005 20.9036H14.1845C16.5249 20.9036 18.4221 22.8008 18.4221 25.1412C18.4221 25.2582 18.3272 25.3531 18.2102 25.3531H4.01437C3.89735 25.3531 3.80249 25.2582 3.80249 25.1412Z" fill="#FAF8F5" stroke="#742215" stroke-width="2"/>
</svg>