<svg xmlns="http://www.w3.org/2000/svg" width="35" height="35" viewBox="0 0 35 35" fill="none">
    <path d="M10 22.1414C8.14864 20.3265 7 17.7974 7 15C7 9.47715 11.4772 5 17 5C22.5228 5 27 9.47715 27 15C27 17.7974 25.8514 20.3265 24 22.1414" stroke="#E2E2E2" stroke-width="2" stroke-linecap="round"/>
    <path d="M22.5877 16.197C23.3575 16.197 23.8386 17.0303 23.4537 17.697L21.4097 21.2373C21.0248 21.9039 20.0626 21.9039 19.6777 21.2373L17.6337 17.697C17.2488 17.0303 17.7299 16.197 18.4997 16.197L22.5877 16.197Z" fill="#F5F5F5"/>
    <rect x="12.7422" y="10.7579" width="5.5157" height="5.5157" rx="1" transform="rotate(-30 12.7422 10.7579)" fill="#E2E2E2"/>
    <ellipse cx="13.2612" cy="15.5154" rx="3.09469" ry="3.09469" fill="#EFEFEF"/>
    <path d="M9.80273 29.1411C9.80273 26.8008 11.7 24.9036 14.0403 24.9036H20.1848C22.5251 24.9036 24.4223 26.8008 24.4223 29.1411C24.4223 29.2581 24.3275 29.353 24.2104 29.353H10.0146C9.8976 29.353 9.80273 29.2581 9.80273 29.1411Z" fill="#F5F5F5" stroke="#E2E2E2" stroke-width="2"/>
</svg>