<svg xmlns="http://www.w3.org/2000/svg" width="35" height="35" viewBox="0 0 35 35" fill="none">
    <path d="M11 22.1414C9.14864 20.3265 8 17.7974 8 15C8 9.47715 12.4772 5 18 5C23.5228 5 28 9.47715 28 15C28 17.7974 26.8514 20.3265 25 22.1414" stroke="#742215" stroke-width="2" stroke-linecap="round"/>
    <path d="M23.5877 16.1969C24.3575 16.1969 24.8386 17.0303 24.4537 17.6969L22.4097 21.2372C22.0248 21.9039 21.0626 21.9039 20.6777 21.2372L18.6337 17.6969C18.2488 17.0303 18.7299 16.1969 19.4997 16.1969L23.5877 16.1969Z" fill="#E3D3D0"/>
    <rect x="13.7422" y="10.7578" width="5.5157" height="5.5157" rx="1" transform="rotate(-30 13.7422 10.7578)" fill="#742215"/>
    <ellipse cx="14.2612" cy="15.5155" rx="3.09469" ry="3.09469" fill="#AC7A73"/>
    <path d="M10.8025 29.1412C10.8025 26.8009 12.6997 24.9037 15.0401 24.9037H21.1845C23.5249 24.9037 25.4221 26.8009 25.4221 29.1412C25.4221 29.2583 25.3272 29.3531 25.2102 29.3531H11.0144C10.8974 29.3531 10.8025 29.2583 10.8025 29.1412Z" fill="#FAF8F5" stroke="#742215" stroke-width="2"/>
</svg>