<svg width="375" height="540" viewBox="0 0 375 540" fill="none" xmlns="http://www.w3.org/2000/svg">
<rect width="700" height="60" transform="matrix(-0.866025 -0.5 -0.5 0.866025 549.218 350)" fill="#CE5350"/>
<rect width="700" height="60" transform="matrix(-0.866025 -0.5 -0.5 0.866025 549.289 418.962)" fill="#D77B48"/>
<rect width="700" height="60" transform="matrix(-0.866025 -0.5 -0.5 0.866025 549.218 487.923)" fill="#D79E48"/>
<path d="M424.852 381.843L370.76 367.35L351.866 437.862C347.864 452.799 356.728 468.153 371.665 472.155C386.602 476.157 401.956 467.293 405.958 452.356L424.852 381.843Z" fill="#AC7A73"/>
<path fill-rule="evenodd" clip-rule="evenodd" d="M273.041 237.068L311.147 259.068L308.647 263.398L299.647 278.987L297.147 283.317L248.649 255.317L260.149 235.398L270.541 241.398L273.041 237.068Z" fill="#E3D3D0"/>
<circle cx="24" cy="24" r="24" transform="matrix(-0.866025 -0.5 -0.5 0.866025 409.962 351.915)" fill="#742215"/>
<circle cx="17" cy="17" r="17" transform="matrix(-0.866025 -0.5 -0.5 0.866025 391.615 321.692)" fill="#AC7A73"/>
<path fill-rule="evenodd" clip-rule="evenodd" d="M229.091 217.467L222.044 213.398L213.044 228.987L299.647 278.987L308.647 263.398L247.695 228.207C249.216 223.394 247.253 218.004 242.7 215.376C238.148 212.748 232.499 213.743 229.091 217.467Z" fill="#F1E9E8"/>
<rect width="100" height="6" transform="matrix(-0.866025 -0.5 -0.5 0.866025 307.147 265.996)" fill="#C7A7A1"/>
<rect width="100" height="6" transform="matrix(-0.866025 -0.5 -0.5 0.866025 307.147 265.996)" fill="#C7A7A1"/>
<rect width="100" height="4" transform="matrix(-0.866025 -0.5 -0.5 0.866025 304.147 271.192)" fill="#AC7A73"/>
<path fill-rule="evenodd" clip-rule="evenodd" d="M306.816 256.568L311.147 259.068L300.147 278.121L297.147 283.317L292.816 280.817L274.63 270.317L295.24 276.62L306.816 256.568Z" fill="#742215"/>
<path d="M375.893 314.924C381.415 305.359 378.138 293.127 368.572 287.604L313.146 255.604L297.146 283.317C291.624 292.883 294.901 305.114 304.467 310.637L359.893 342.637L375.893 314.924Z" fill="#C7A7A1"/>
<rect width="56" height="45" transform="matrix(-0.866025 -0.5 -0.5 0.866025 374.599 299.166)" fill="#E3D3D0"/>
<rect width="56" height="13" transform="matrix(-0.866025 -0.5 -0.5 0.866025 371.099 305.228)" fill="#AC7A73"/>
<path d="M356.26 294.929C354.741 297.56 351.377 298.461 348.747 296.942L320.601 280.692L326.101 271.166L354.247 287.416C356.877 288.935 357.779 292.299 356.26 294.929Z" fill="#742215"/>
<path d="M347.76 309.652C346.241 312.282 342.878 313.184 340.247 311.665L312.101 295.415L317.601 285.889L345.747 302.139C348.378 303.657 349.279 307.021 347.76 309.652Z" fill="#742215"/>
<path d="M339.26 324.374C337.741 327.005 334.378 327.906 331.747 326.387L303.601 310.137L309.101 300.611L337.247 316.861C339.878 318.38 340.779 321.743 339.26 324.374Z" fill="#742215"/>
<circle cx="4.5" cy="4.5" r="4.5" transform="matrix(-0.866025 -0.5 -0.5 0.866025 313.771 282.522)" fill="#742215"/>
<rect x="184.616" y="240.678" width="7.62467" height="7.62467" rx="2" transform="rotate(-15 184.616 240.678)" fill="#742215"/>
<rect x="195.555" y="256.188" width="5.42793" height="5.42793" rx="2" transform="rotate(-45 195.555 256.188)" fill="#EAD776"/>
<rect x="225.808" y="177.283" width="7.62467" height="7.62467" rx="2" transform="rotate(-15 225.808 177.283)" fill="#742215"/>
<rect x="187.712" y="208.812" width="5.42793" height="5.42793" rx="2" transform="rotate(-45 187.712 208.812)" fill="#EAD776"/>
<rect x="248.579" y="193.503" width="5.42793" height="5.42793" rx="1" transform="rotate(-45 248.579 193.503)" fill="#EAD776"/>
<rect x="267.756" y="210.648" width="5.42793" height="5.42793" rx="2" transform="rotate(-45 267.756 210.648)" fill="#742215"/>
<rect x="238.102" y="267.072" width="4.65866" height="4.65866" rx="1" transform="rotate(-75 238.102 267.072)" fill="#D77B48"/>
<rect width="2.03584" height="2.03584" rx="1" transform="matrix(-0.0159369 -0.999873 -0.999873 0.0159369 232.073 201.172)" fill="#D77B48"/>
<rect width="3.62965" height="3.62965" rx="1" transform="matrix(-0.0159369 -0.999873 -0.999873 0.0159369 195.246 240.176)" fill="#D77B48"/>
</svg>
