<svg width="60" height="60" viewBox="0 0 60 60" fill="none" xmlns="http://www.w3.org/2000/svg">
<g id="Group 109">
<g id="Group 73">
<path id="Union" fill-rule="evenodd" clip-rule="evenodd" d="M28.3123 8.70679H26.1132C25.666 8.70679 25.2731 9.00372 25.1511 9.43397L23.7172 14.4904C23.5362 15.1288 24.0158 15.7632 24.6793 15.7632H28.3123H32.0275H35.6605C36.324 15.7632 36.8036 15.1288 36.6225 14.4904L35.1887 9.43397C35.0667 9.00372 34.6738 8.70679 34.2266 8.70679H32.0275H28.3123Z" fill="url(#paint0_linear_124_1231)"/>
<g id="Group 66">
<g id="Group 60">
<g id="Union_2">
<path fill-rule="evenodd" clip-rule="evenodd" d="M28.3123 8.70676H26.1132C25.666 8.70676 25.2732 9.00369 25.1512 9.43394L23.7173 14.4904C23.5362 15.1288 24.0158 15.7632 24.6793 15.7632H28.3123H32.0275H35.6605C36.3241 15.7632 36.8036 15.1288 36.6226 14.4904L35.1887 9.43394C35.0667 9.00369 34.6738 8.70676 34.2266 8.70676H32.0275H28.3123Z" fill="#D9D9D9"/>
<path fill-rule="evenodd" clip-rule="evenodd" d="M28.3123 8.70676H26.1132C25.666 8.70676 25.2732 9.00369 25.1512 9.43394L23.7173 14.4904C23.5362 15.1288 24.0158 15.7632 24.6793 15.7632H28.3123H32.0275H35.6605C36.3241 15.7632 36.8036 15.1288 36.6226 14.4904L35.1887 9.43394C35.0667 9.00369 34.6738 8.70676 34.2266 8.70676H32.0275H28.3123Z" fill="url(#paint1_linear_124_1231)"/>
</g>
<path id="Polygon 2" d="M40.4436 30.2579C41.2134 30.2579 41.6945 31.0913 41.3096 31.7579L37.0147 39.197C36.6298 39.8637 35.6675 39.8637 35.2826 39.197L30.9876 31.7579C30.6027 31.0913 31.0839 30.2579 31.8537 30.2579L40.4436 30.2579Z" fill="url(#paint2_linear_124_1231)"/>
</g>
<rect id="Rectangle 2530" x="21.4072" y="41.9682" width="17.4841" height="5.37974" rx="2.68987" fill="url(#paint3_linear_124_1231)"/>
<path id="Union_3" fill-rule="evenodd" clip-rule="evenodd" d="M30.1697 46.8114H23.2694C22.8694 46.8114 22.5078 47.0498 22.3503 47.4175L20.1832 52.4739C19.9004 53.1338 20.3844 53.8679 21.1023 53.8679H30.1697H30.1705H39.2378C39.9557 53.8679 40.4397 53.1338 40.1569 52.4739L37.9899 47.4175C37.8323 47.0498 37.4708 46.8114 37.0708 46.8114H30.1705H30.1697Z" fill="url(#paint4_linear_124_1231)"/>
<g id="Ellipse 22" filter="url(#filter0_bi_124_1231)">
<circle cx="30.1704" cy="29.1704" r="16.2298" transform="rotate(-150 30.1704 29.1704)" fill="url(#paint5_linear_124_1231)" fill-opacity="0.5"/>
<circle cx="30.1704" cy="29.1704" r="16.0798" transform="rotate(-150 30.1704 29.1704)" stroke="url(#paint6_linear_124_1231)" stroke-width="0.3"/>
</g>
<g id="Ellipse 24" filter="url(#filter1_bi_124_1231)">
<circle cx="30.1703" cy="29.1704" r="16.2298" transform="rotate(-150 30.1703 29.1704)" fill="url(#paint7_linear_124_1231)" fill-opacity="0.5"/>
<circle cx="30.1703" cy="29.1704" r="16.0798" transform="rotate(-150 30.1703 29.1704)" stroke="url(#paint8_linear_124_1231)" stroke-width="0.3"/>
</g>
<rect id="Rectangle 2529" x="23.6962" y="21.5765" width="8.80377" height="8.80377" rx="1" transform="rotate(-30 23.6962 21.5765)" fill="url(#paint9_linear_124_1231)" fill-opacity="0.7"/>
<circle id="Ellipse 23" cx="24.5249" cy="29.1704" r="4.93952" fill="url(#paint10_linear_124_1231)"/>
<rect id="Rectangle 2524" x="21.4072" y="41.9682" width="17.4841" height="5.37974" rx="2.68987" fill="url(#paint11_linear_124_1231)"/>
</g>
<path id="Polygon 2_2" d="M40.4437 30.258C41.2135 30.258 41.6946 31.0913 41.3097 31.758L37.0147 39.1971C36.6298 39.8638 35.6676 39.8638 35.2827 39.1971L30.9877 31.758C30.6028 31.0913 31.0839 30.258 31.8537 30.258L40.4437 30.258Z" fill="url(#paint12_linear_124_1231)"/>
<rect id="Rectangle 2530_2" x="21.4072" y="41.9683" width="17.4841" height="5.37974" rx="2.68987" fill="url(#paint13_linear_124_1231)"/>
<path id="Union_4" fill-rule="evenodd" clip-rule="evenodd" d="M30.1697 46.8113H23.2694C22.8694 46.8113 22.5079 47.0497 22.3503 47.4174L20.1833 52.4738C19.9004 53.1337 20.3845 53.8677 21.1024 53.8677H30.1697H30.1705H39.2379C39.9558 53.8677 40.4398 53.1337 40.157 52.4738L37.9899 47.4174C37.8324 47.0497 37.4708 46.8113 37.0708 46.8113H30.1705H30.1697Z" fill="url(#paint14_linear_124_1231)"/>
<rect id="Rectangle 2529_2" x="23.6963" y="21.5764" width="8.80377" height="8.80377" rx="1" transform="rotate(-30 23.6963 21.5764)" fill="url(#paint15_linear_124_1231)" fill-opacity="0.7"/>
<circle id="Ellipse 23_2" cx="24.525" cy="29.1702" r="4.93952" fill="url(#paint16_linear_124_1231)"/>
<path id="Polygon 3" d="M40.4437 30.258C41.2135 30.258 41.6946 31.0913 41.3097 31.758L37.0147 39.1971C36.6298 39.8638 35.6676 39.8638 35.2827 39.1971L30.9877 31.758C30.6028 31.0913 31.0839 30.258 31.8537 30.258L40.4437 30.258Z" fill="url(#paint17_linear_124_1231)"/>
<rect id="Rectangle 2531" x="23.6963" y="21.5764" width="8.80377" height="8.80377" rx="1" transform="rotate(-30 23.6963 21.5764)" fill="url(#paint18_linear_124_1231)" fill-opacity="0.7"/>
<circle id="Ellipse 24_2" cx="24.525" cy="29.1702" r="4.93952" fill="url(#paint19_linear_124_1231)"/>
<rect id="Rectangle 2524_2" x="21.4072" y="41.9683" width="17.4841" height="5.37974" rx="2.68987" fill="url(#paint20_linear_124_1231)"/>
</g>
</g>
<defs>
<filter id="filter0_bi_124_1231" x="10.9378" y="9.93782" width="38.4651" height="38.4651" filterUnits="userSpaceOnUse" color-interpolation-filters="sRGB">
<feFlood flood-opacity="0" result="BackgroundImageFix"/>
<feGaussianBlur in="BackgroundImageFix" stdDeviation="1.5"/>
<feComposite in2="SourceAlpha" operator="in" result="effect1_backgroundBlur_124_1231"/>
<feBlend mode="normal" in="SourceGraphic" in2="effect1_backgroundBlur_124_1231" result="shape"/>
<feColorMatrix in="SourceAlpha" type="matrix" values="0 0 0 0 0 0 0 0 0 0 0 0 0 0 0 0 0 0 127 0" result="hardAlpha"/>
<feOffset dy="-2"/>
<feGaussianBlur stdDeviation="2"/>
<feComposite in2="hardAlpha" operator="arithmetic" k2="-1" k3="1"/>
<feColorMatrix type="matrix" values="0 0 0 0 0.419608 0 0 0 0 0.682353 0 0 0 0 0.835294 0 0 0 0.3 0"/>
<feBlend mode="normal" in2="shape" result="effect2_innerShadow_124_1231"/>
</filter>
<filter id="filter1_bi_124_1231" x="10.9378" y="9.9379" width="38.4651" height="38.4651" filterUnits="userSpaceOnUse" color-interpolation-filters="sRGB">
<feFlood flood-opacity="0" result="BackgroundImageFix"/>
<feGaussianBlur in="BackgroundImageFix" stdDeviation="1.5"/>
<feComposite in2="SourceAlpha" operator="in" result="effect1_backgroundBlur_124_1231"/>
<feBlend mode="normal" in="SourceGraphic" in2="effect1_backgroundBlur_124_1231" result="shape"/>
<feColorMatrix in="SourceAlpha" type="matrix" values="0 0 0 0 0 0 0 0 0 0 0 0 0 0 0 0 0 0 127 0" result="hardAlpha"/>
<feOffset dy="-2"/>
<feGaussianBlur stdDeviation="2"/>
<feComposite in2="hardAlpha" operator="arithmetic" k2="-1" k3="1"/>
<feColorMatrix type="matrix" values="0 0 0 0 0.419608 0 0 0 0 0.682353 0 0 0 0 0.835294 0 0 0 0.3 0"/>
<feBlend mode="normal" in2="shape" result="effect2_innerShadow_124_1231"/>
</filter>
<linearGradient id="paint0_linear_124_1231" x1="23.246" y1="14.3679" x2="23.246" y2="8.86792" gradientUnits="userSpaceOnUse">
<stop stop-color="#80D0EC"/>
<stop offset="1" stop-color="#047FFE"/>
</linearGradient>
<linearGradient id="paint1_linear_124_1231" x1="38.3921" y1="6.06059" x2="40.2343" y2="14.848" gradientUnits="userSpaceOnUse">
<stop stop-color="#047FFE"/>
<stop offset="1" stop-color="#67C5FA"/>
</linearGradient>
<linearGradient id="paint2_linear_124_1231" x1="45.6554" y1="36.285" x2="24.2652" y2="30.5535" gradientUnits="userSpaceOnUse">
<stop stop-color="#0E7AEB"/>
<stop offset="0.0001" stop-color="#007DFF"/>
<stop offset="1" stop-color="#00D0EC" stop-opacity="0"/>
</linearGradient>
<linearGradient id="paint3_linear_124_1231" x1="20.7347" y1="42.6407" x2="29.0819" y2="52.8108" gradientUnits="userSpaceOnUse">
<stop stop-color="#C3EFFB"/>
<stop offset="1" stop-color="#4FB6FB"/>
</linearGradient>
<linearGradient id="paint4_linear_124_1231" x1="42.9239" y1="44.1652" x2="44.1415" y2="53.1743" gradientUnits="userSpaceOnUse">
<stop stop-color="#047FFE"/>
<stop offset="1" stop-color="#67C5FA"/>
</linearGradient>
<linearGradient id="paint5_linear_124_1231" x1="28.2015" y1="2.18596" x2="31.3031" y2="60.4976" gradientUnits="userSpaceOnUse">
<stop stop-color="#A6E4FB" stop-opacity="0.6"/>
<stop offset="1" stop-color="#A6E4FB" stop-opacity="0"/>
</linearGradient>
<linearGradient id="paint6_linear_124_1231" x1="3.20393" y1="24.3042" x2="52.3086" y2="23.199" gradientUnits="userSpaceOnUse">
<stop stop-color="#C3E3FE" stop-opacity="0.1"/>
<stop offset="1" stop-color="#0C86FE" stop-opacity="0.5"/>
</linearGradient>
<linearGradient id="paint7_linear_124_1231" x1="28.2014" y1="2.18603" x2="31.3031" y2="60.4977" gradientUnits="userSpaceOnUse">
<stop stop-color="#005BE1"/>
<stop offset="1" stop-color="#A6E4FB" stop-opacity="0"/>
</linearGradient>
<linearGradient id="paint8_linear_124_1231" x1="3.20387" y1="24.3042" x2="52.3086" y2="23.199" gradientUnits="userSpaceOnUse">
<stop stop-color="#C3E3FE" stop-opacity="0.1"/>
<stop offset="1" stop-color="#0C86FE" stop-opacity="0.5"/>
</linearGradient>
<linearGradient id="paint9_linear_124_1231" x1="27.5212" y1="18.6597" x2="28.3004" y2="34.4814" gradientUnits="userSpaceOnUse">
<stop stop-color="#00BAFF"/>
<stop offset="1" stop-color="white" stop-opacity="0"/>
</linearGradient>
<linearGradient id="paint10_linear_124_1231" x1="24.5249" y1="24.2308" x2="24.5249" y2="34.1099" gradientUnits="userSpaceOnUse">
<stop stop-color="#047FFE"/>
<stop offset="1" stop-color="#047FFE" stop-opacity="0"/>
</linearGradient>
<linearGradient id="paint11_linear_124_1231" x1="20.7347" y1="42.6407" x2="29.0819" y2="52.8108" gradientUnits="userSpaceOnUse">
<stop stop-color="#C3EFFB"/>
<stop offset="1" stop-color="#4FB6FB"/>
</linearGradient>
<linearGradient id="paint12_linear_124_1231" x1="45.6555" y1="36.285" x2="24.2653" y2="30.5535" gradientUnits="userSpaceOnUse">
<stop stop-color="#047FFE"/>
<stop offset="0.0001" stop-color="#007DFF"/>
<stop offset="1" stop-color="#00D0EC" stop-opacity="0"/>
</linearGradient>
<linearGradient id="paint13_linear_124_1231" x1="20.7348" y1="42.6407" x2="29.0819" y2="52.8108" gradientUnits="userSpaceOnUse">
<stop stop-color="#C3EFFB"/>
<stop offset="1" stop-color="#4FB6FB"/>
</linearGradient>
<linearGradient id="paint14_linear_124_1231" x1="35.5908" y1="44.8679" x2="35.5908" y2="53.8679" gradientUnits="userSpaceOnUse">
<stop stop-color="#047FFE"/>
<stop offset="1" stop-color="#80D0EC"/>
</linearGradient>
<linearGradient id="paint15_linear_124_1231" x1="27.5213" y1="18.6595" x2="28.3005" y2="34.4813" gradientUnits="userSpaceOnUse">
<stop stop-color="#00D0EC"/>
<stop offset="1" stop-color="#80D0EC" stop-opacity="0"/>
</linearGradient>
<linearGradient id="paint16_linear_124_1231" x1="24.525" y1="24.2307" x2="24.525" y2="34.1097" gradientUnits="userSpaceOnUse">
<stop stop-color="#047FFE"/>
<stop offset="0.0001" stop-color="#047FFE"/>
<stop offset="1" stop-color="#047FFE" stop-opacity="0"/>
</linearGradient>
<linearGradient id="paint17_linear_124_1231" x1="45.6555" y1="36.285" x2="24.2653" y2="30.5535" gradientUnits="userSpaceOnUse">
<stop stop-color="#047FFE"/>
<stop offset="0.0001" stop-color="#007DFF"/>
<stop offset="1" stop-color="#00D0EC" stop-opacity="0"/>
</linearGradient>
<linearGradient id="paint18_linear_124_1231" x1="27.5213" y1="18.6595" x2="28.3005" y2="34.4813" gradientUnits="userSpaceOnUse">
<stop stop-color="#00D0EC"/>
<stop offset="1" stop-color="#00D0EC" stop-opacity="0"/>
</linearGradient>
<linearGradient id="paint19_linear_124_1231" x1="24.525" y1="24.2307" x2="24.525" y2="34.1097" gradientUnits="userSpaceOnUse">
<stop stop-color="#047FFE"/>
<stop offset="0.0001" stop-color="#047FFE"/>
<stop offset="1" stop-color="#047FFE" stop-opacity="0"/>
</linearGradient>
<linearGradient id="paint20_linear_124_1231" x1="38" y1="36.5" x2="17.5" y2="50.5" gradientUnits="userSpaceOnUse">
<stop stop-color="#C3EFFB"/>
<stop offset="1" stop-color="#00D0EC"/>
</linearGradient>
</defs>
</svg>
