<svg width="35" height="35" viewBox="0 0 35 35" fill="none" xmlns="http://www.w3.org/2000/svg">
<g id="Group 244">
<g id="Group 240">
<path id="Subtract" d="M11.9926 16.8194C10.7598 15.5652 10 13.8496 10 11.9576C10 8.11502 13.134 5 17 5C20.866 5 24 8.11502 24 11.9576C24 13.8496 23.2402 15.5652 22.0073 16.8194" stroke="#B67E5C" stroke-width="2" stroke-linecap="round"/>
<path id="Union" d="M14.0055 19.0002C13.4052 19.0002 12.9387 19.5227 13.0065 20.1191L13.8081 26.3953C13.8659 26.9033 14.2958 27.2872 14.8071 27.2872L19.1927 27.2872C19.7041 27.2872 20.134 26.9033 20.1917 26.3953L20.9934 20.1191C21.0612 19.5227 20.5946 19.0002 19.9944 19.0002L14.0055 19.0002Z" stroke="#B67E5C" stroke-width="2" stroke-linejoin="round"/>
<path id="Union_2" d="M14.0056 19.0002C13.4053 19.0002 12.9388 19.5227 13.0066 20.1191L13.8082 26.3953C13.8659 26.9033 14.2958 27.2872 14.8072 27.2872L19.1928 27.2872C19.7042 27.2872 20.1341 26.9033 20.1918 26.3953L20.9934 20.1191C21.0612 19.5227 20.5947 19.0002 19.9944 19.0002L14.0056 19.0002Z" fill="#FBE6BF" stroke="#B67E5C" stroke-width="2" stroke-linejoin="round"/>
<path id="Vector 75" d="M15.4219 30H18.4219" stroke="#B67E5C" stroke-width="2" stroke-linecap="round"/>
</g>
</g>
</svg>
