<svg width="27" height="27" viewBox="0 0 27 27" fill="none" xmlns="http://www.w3.org/2000/svg">
<g id="Group 310">
<g id="Group 307">
<circle id="Ellipse 48" cx="13.5" cy="13.5" r="13.5" fill="#FBF3E3"/>
</g>
<path id="Vector" d="M10.7625 7.65563C10.2373 6.68841 9.63572 7.00222 9.27744 7.27518C8.02386 8.23044 7.71003 8.46959 7.34431 9.20847C6.10796 12.833 8.50004 15.8884 9.80607 17.1942C11.1118 18.5003 14.1675 20.8921 17.7917 19.6556C18.5305 19.2899 18.7697 18.976 19.7248 17.7223L19.7248 17.7223C19.9978 17.364 20.3116 16.7624 19.3444 16.2371L16.9266 14.9238C16.648 14.8293 16.0907 14.6404 15.1727 15.9316C14.4684 16.9222 12.7616 15.731 12.0154 14.9847C11.2692 14.2384 10.0775 12.5321 11.068 11.8277C12.3591 10.9097 12.1702 10.3523 12.0757 10.0737L10.7625 7.65563Z" fill="#B67E5C"/>
</g>
</svg>
