<svg xmlns="http://www.w3.org/2000/svg" width="33" height="33" viewBox="0 0 33 33" fill="none">
    <circle cx="16.726" cy="16.3352" r="15.8793" fill="#E3D3D0"/>
    <path d="M13.5062 9.46082C12.8884 8.32314 12.1808 8.69225 11.7594 9.01332C10.2849 10.1369 9.91573 10.4182 9.48556 11.2873C8.03131 15.5506 10.845 19.1446 12.3812 20.6805C13.917 22.2169 17.5113 25.0301 21.7743 23.5757C22.6433 23.1455 22.9246 22.7763 24.0481 21.3017C24.3691 20.8803 24.7382 20.1726 23.6006 19.5547L20.7567 18.01C20.429 17.8988 19.7734 17.6767 18.6936 19.1954C17.8652 20.3605 15.8576 18.9594 14.9799 18.0816C14.1022 17.2038 12.7005 15.1967 13.8655 14.3682C15.3841 13.2883 15.162 12.6328 15.0508 12.305L13.5062 9.46082Z" fill="#742215"/>
</svg>