<svg width="52" height="52" viewBox="0 0 52 52" fill="none" xmlns="http://www.w3.org/2000/svg">
<g id="Group 188">
<g id="Group 187">
<g id="Group 186" opacity="0.5">
<path id="Union" fill-rule="evenodd" clip-rule="evenodd" d="M25.6575 14.8453C24.7798 15.7375 23.7073 16.4843 22.5786 17.0783C19.6834 18.6021 15.8337 19.4793 11.7002 19.4793C10.5035 19.4793 9.53349 18.5092 9.53349 17.3126C9.53349 16.116 10.5035 15.1459 11.7002 15.1459C15.275 15.1459 18.4039 14.3786 20.5603 13.2437C22.8168 12.0561 23.4908 10.7905 23.4908 9.96665C23.4908 8.77004 24.4608 7.79999 25.6574 7.79999C25.6574 7.79999 25.6575 7.79999 25.6575 7.79999C25.6575 7.79999 25.6575 7.79999 25.6575 7.79999C26.8541 7.79999 27.8242 8.77004 27.8242 9.96665C27.8242 10.7905 28.4982 12.0561 30.7546 13.2437C32.911 14.3786 36.04 15.1459 39.6148 15.1459C40.8114 15.1459 41.7815 16.116 41.7815 17.3126C41.7815 18.5092 40.8114 19.4793 39.6148 19.4793C35.4813 19.4793 31.6315 18.6021 28.7364 17.0783C27.6077 16.4843 26.5351 15.7375 25.6575 14.8453Z" fill="url(#paint0_linear_424_163)"/>
<g id="Group 185">
<path id="Union_2" fill-rule="evenodd" clip-rule="evenodd" d="M16.5119 20.8L16.5212 20.8H24.9408C26.8804 20.8 28.4528 22.3724 28.4528 24.312C28.4528 26.2516 26.8804 27.824 24.9408 27.824H20.8453C20.3917 27.824 20.0239 28.1917 20.0239 28.6453C20.0239 29.0989 20.3917 29.4667 20.8453 29.4667H24.9886C26.9032 29.4667 28.4553 31.0187 28.4553 32.9333C28.4553 34.8479 26.9032 36.4 24.9886 36.4H17.1886C16.4629 36.4 15.728 36.2415 15.0667 35.9425C13.848 35.3915 13 34.1652 13 32.7407V24.312C13 22.3724 14.5723 20.8 16.5119 20.8Z" fill="url(#paint1_linear_424_163)" fill-opacity="0.7"/>
<path id="Union_3" fill-rule="evenodd" clip-rule="evenodd" d="M16.5119 20.8L16.5212 20.8H24.9408C26.8804 20.8 28.4528 22.3724 28.4528 24.312C28.4528 26.2516 26.8804 27.824 24.9408 27.824H20.8453C20.3917 27.824 20.0239 28.1917 20.0239 28.6453C20.0239 29.0989 20.3917 29.4667 20.8453 29.4667H24.9886C26.9032 29.4667 28.4553 31.0187 28.4553 32.9333C28.4553 34.8479 26.9032 36.4 24.9886 36.4H17.1886C16.4629 36.4 15.728 36.2415 15.0667 35.9425C13.848 35.3915 13 34.1652 13 32.7407V24.312C13 22.3724 14.5723 20.8 16.5119 20.8Z" fill="url(#paint2_linear_424_163)" fill-opacity="0.7"/>
<path id="Ellipse 45" d="M24.1221 36.9778C24.1221 32.7231 27.5712 29.274 31.8258 29.274C36.0805 29.274 39.5295 32.7231 39.5295 36.9778C39.5295 41.2324 36.0805 44.6815 31.8258 44.6815C27.5712 44.6815 24.1221 41.2324 24.1221 36.9778Z" fill="url(#paint3_linear_424_163)"/>
<path id="Ellipse 46" d="M24.1221 36.9778C24.1221 32.7231 27.5712 29.274 31.8258 29.274C36.0805 29.274 39.5295 32.7231 39.5295 36.9778C39.5295 41.2324 36.0805 44.6815 31.8258 44.6815C27.5712 44.6815 24.1221 41.2324 24.1221 36.9778Z" fill="url(#paint4_linear_424_163)"/>
</g>
</g>
</g>
</g>
<defs>
<linearGradient id="paint0_linear_424_163" x1="-3.03317" y1="11.2667" x2="8.26246" y2="-5.83975" gradientUnits="userSpaceOnUse">
<stop stop-color="#047FFE"/>
<stop offset="0.0001" stop-color="#0E7AEB"/>
<stop offset="1" stop-color="#00D0EC"/>
</linearGradient>
<linearGradient id="paint1_linear_424_163" x1="19.7138" y1="15.6802" x2="21.0815" y2="43.4512" gradientUnits="userSpaceOnUse">
<stop stop-color="#00D0EC"/>
<stop offset="1" stop-color="#00D0EC" stop-opacity="0"/>
</linearGradient>
<linearGradient id="paint2_linear_424_163" x1="19.7138" y1="15.6802" x2="21.0815" y2="43.4512" gradientUnits="userSpaceOnUse">
<stop stop-color="#00D0EC"/>
<stop offset="1" stop-color="#00D0EC" stop-opacity="0"/>
</linearGradient>
<linearGradient id="paint3_linear_424_163" x1="33.1926" y1="27.7959" x2="25.8961" y2="45.4335" gradientUnits="userSpaceOnUse">
<stop stop-color="#047FFE"/>
<stop offset="1" stop-color="#047FFE" stop-opacity="0"/>
</linearGradient>
<linearGradient id="paint4_linear_424_163" x1="33.1926" y1="27.7959" x2="25.8961" y2="45.4335" gradientUnits="userSpaceOnUse">
<stop stop-color="#047FFE"/>
<stop offset="1" stop-color="#047FFE" stop-opacity="0"/>
</linearGradient>
</defs>
</svg>
