<svg width="35" height="35" viewBox="0 0 35 35" fill="none" xmlns="http://www.w3.org/2000/svg">
<g id="Group 243">
<g id="Group 226">
<g id="Group 225">
<g id="Group 224">
<g id="Group 239">
<path id="Ellipse 50" d="M10 22.1414C8.14864 20.3265 7 17.7974 7 15C7 9.47715 11.4772 5 17 5C22.5228 5 27 9.47715 27 15C27 17.7974 25.8514 20.3265 24 22.1414" stroke="#B67E5C" stroke-width="2" stroke-linecap="round"/>
<g id="Group 222">
<path id="Polygon 3" d="M22.5876 16.197C23.3574 16.197 23.8385 17.0303 23.4536 17.697L21.4096 21.2372C21.0247 21.9039 20.0625 21.9039 19.6776 21.2372L17.6336 17.697C17.2487 17.0303 17.7298 16.197 18.4996 16.197L22.5876 16.197Z" fill="#FBE6BF"/>
<rect id="Rectangle 2531" x="12.7422" y="10.7578" width="5.5157" height="5.5157" rx="1" transform="rotate(-30 12.7422 10.7578)" fill="#B67E5C"/>
<ellipse id="Ellipse 24" cx="13.2611" cy="15.5154" rx="3.09469" ry="3.09469" fill="#E6C299"/>
</g>
</g>
</g>
<path id="Rectangle 2723" d="M9.80249 29.1412C9.80249 26.8008 11.6997 24.9036 14.0401 24.9036H20.1845C22.5249 24.9036 24.4221 26.8008 24.4221 29.1412C24.4221 29.2582 24.3272 29.3531 24.2102 29.3531H10.0144C9.89735 29.3531 9.80249 29.2582 9.80249 29.1412Z" fill="#FAF8F5" stroke="#B67E5C" stroke-width="2"/>
</g>
</g>
</g>
</svg>
