<svg width="45" height="45" viewBox="0 0 45 45" fill="none" xmlns="http://www.w3.org/2000/svg">
<path d="M7 11.9418C7 11.5037 7.28526 11.1165 7.70376 10.9867L16.0371 8.40204C16.6806 8.20245 17.3333 8.68341 17.3333 9.35716V31.3006C17.3333 31.7388 17.0481 32.1259 16.6296 32.2557L8.29624 34.8404C7.65273 35.04 7 34.559 7 33.8853V11.9418Z" fill="url(#paint0_linear_174_305)"/>
<path d="M27.6667 11.9418C27.6667 11.5037 27.9519 11.1165 28.3704 10.9867L36.7038 8.40204C37.3473 8.20245 38 8.68341 38 9.35716V31.3006C38 31.7388 37.7147 32.1259 37.2962 32.2557L28.9629 34.8404C28.3194 35.04 27.6667 34.559 27.6667 33.8853V11.9418Z" fill="url(#paint1_linear_174_305)"/>
<path d="M17.3333 31.3006C17.3333 31.7388 17.6186 32.1259 18.0371 32.2557L26.3704 34.8404C27.0139 35.04 27.6667 34.559 27.6667 33.8853V11.9418C27.6667 11.5037 27.3814 11.1165 26.9629 10.9867L18.6296 8.40205C17.9861 8.20246 17.3333 8.68342 17.3333 9.35716V31.3006Z" fill="url(#paint2_linear_174_305)"/>
<path fill-rule="evenodd" clip-rule="evenodd" d="M20.9607 23.6653C18.9489 21.6536 15.6873 21.6536 13.6756 23.6653C11.9244 25.4165 11.6671 28.166 13.0632 30.2116L16.7771 35.6537C17.0371 36.0347 17.5991 36.0347 17.8591 35.6537L21.5731 30.2116C22.9691 28.166 22.7119 25.4165 20.9607 23.6653ZM17.2167 29.8459C18.5634 29.8459 19.6551 28.7542 19.6551 27.4076C19.6551 26.0609 18.5634 24.9692 17.2167 24.9692C15.87 24.9692 14.7784 26.0609 14.7784 27.4076C14.7784 28.7542 15.87 29.8459 17.2167 29.8459Z" fill="#005BE1"/>
<defs>
<linearGradient id="paint0_linear_174_305" x1="17" y1="4.09863" x2="11.0396" y2="35.8568" gradientUnits="userSpaceOnUse">
<stop stop-color="#005BE1"/>
<stop offset="1" stop-color="#E6EFFC"/>
</linearGradient>
<linearGradient id="paint1_linear_174_305" x1="28" y1="8.09863" x2="46.8746" y2="30.6978" gradientUnits="userSpaceOnUse">
<stop stop-color="#005BE1"/>
<stop offset="1" stop-color="#E6EFFC"/>
</linearGradient>
<linearGradient id="paint2_linear_174_305" x1="18" y1="31.0989" x2="24.198" y2="9.88725" gradientUnits="userSpaceOnUse">
<stop stop-color="#E6EFFC"/>
<stop offset="1" stop-color="#005BE1"/>
</linearGradient>
</defs>
</svg>
