<svg width="27" height="27" viewBox="0 0 27 27" fill="none" xmlns="http://www.w3.org/2000/svg">
<circle cx="13.5" cy="13.5" r="13.5" fill="url(#paint0_radial_495_67)"/>
<circle cx="13.5" cy="13.5" r="13.5" fill="url(#paint1_radial_495_67)"/>
<path d="M13.7183 6.0968C11.6486 6.0968 11.3888 6.10585 10.5759 6.14285C9.76459 6.18 9.21079 6.30844 8.72622 6.4969C8.22498 6.69155 7.79979 6.95194 7.37619 7.3757C6.95226 7.79929 6.69188 8.22448 6.49659 8.72556C6.30765 9.21028 6.17905 9.76423 6.14253 10.5752C6.10633 11.3881 6.0968 11.648 6.0968 13.7178C6.0968 15.7875 6.10601 16.0465 6.14285 16.8594C6.18016 17.6707 6.3086 18.2245 6.49691 18.709C6.69172 19.2103 6.95211 19.6355 7.37587 20.059C7.79931 20.483 8.2245 20.744 8.72543 20.9386C9.21032 21.1271 9.76427 21.2555 10.5754 21.2927C11.3883 21.3297 11.6479 21.3387 13.7175 21.3387C15.7874 21.3387 16.0464 21.3297 16.8593 21.2927C17.6706 21.2555 18.2251 21.1271 18.71 20.9386C19.211 20.744 19.6356 20.483 20.059 20.059C20.483 19.6355 20.7433 19.2103 20.9386 18.7092C21.126 18.2245 21.2546 17.6705 21.2927 16.8595C21.3292 16.0466 21.3387 15.7875 21.3387 13.7178C21.3387 11.648 21.3292 11.3883 21.2927 10.5754C21.2546 9.76407 21.126 9.21028 20.9386 8.72572C20.7433 8.22448 20.483 7.79929 20.059 7.3757C19.6351 6.95178 19.2112 6.6914 18.7095 6.4969C18.2236 6.30844 17.6695 6.18 16.8582 6.14285C16.0453 6.10585 15.7865 6.0968 13.7161 6.0968H13.7183ZM13.0347 7.47016C13.2376 7.46985 13.464 7.47016 13.7183 7.47016C15.7531 7.47016 15.9943 7.47747 16.7979 7.51398C17.5409 7.54796 17.9442 7.67212 18.2128 7.77643C18.5685 7.91456 18.822 8.07968 19.0886 8.34642C19.3554 8.61315 19.5205 8.86718 19.6589 9.22283C19.7632 9.49115 19.8876 9.89443 19.9214 10.6375C19.9579 11.4408 19.9658 11.6822 19.9658 13.716C19.9658 15.7499 19.9579 15.9912 19.9214 16.7946C19.8874 17.5376 19.7632 17.9409 19.6589 18.2092C19.5208 18.5649 19.3554 18.8181 19.0886 19.0847C18.8219 19.3514 18.5686 19.5165 18.2128 19.6547C17.9445 19.7594 17.5409 19.8833 16.7979 19.9173C15.9945 19.9538 15.7531 19.9617 13.7183 19.9617C11.6833 19.9617 11.4422 19.9538 10.6388 19.9173C9.89573 19.883 9.49245 19.7588 9.22365 19.6545C8.86801 19.5164 8.61397 19.3513 8.34723 19.0845C8.0805 18.8178 7.91537 18.5644 7.77693 18.2086C7.67261 17.9403 7.54829 17.537 7.51448 16.7939C7.47796 15.9906 7.47065 15.7492 7.47065 13.7141C7.47065 11.679 7.47796 11.4389 7.51448 10.6356C7.54845 9.89252 7.67261 9.48924 7.77693 9.2206C7.91506 8.86496 8.0805 8.61093 8.34723 8.34419C8.61397 8.07746 8.86801 7.91234 9.22365 7.77389C9.4923 7.6691 9.89573 7.54526 10.6388 7.51113C11.3418 7.47937 11.6143 7.46985 13.0347 7.46826V7.47016ZM17.7864 8.73556C17.6055 8.73556 17.4287 8.78921 17.2783 8.88971C17.1279 8.99021 17.0106 9.13306 16.9414 9.30018C16.8722 9.46731 16.8541 9.6512 16.8894 9.82861C16.9248 10.006 17.0119 10.169 17.1398 10.2969C17.2678 10.4247 17.4307 10.5118 17.6082 10.5471C17.7856 10.5823 17.9695 10.5642 18.1366 10.4949C18.3037 10.4256 18.4465 10.3084 18.5469 10.1579C18.6474 10.0075 18.701 9.83065 18.7009 9.64976C18.7009 9.14487 18.2913 8.73524 17.7864 8.73524V8.73556ZM13.7183 9.80408C11.557 9.80408 9.8046 11.5564 9.8046 13.7178C9.8046 15.8791 11.557 17.6307 13.7183 17.6307C15.8797 17.6307 17.6316 15.8791 17.6316 13.7178C17.6316 11.5564 15.8797 9.80408 13.7183 9.80408ZM13.7183 11.1774C15.1212 11.1774 16.2587 12.3147 16.2587 13.7178C16.2587 15.1207 15.1212 16.2581 13.7183 16.2581C12.3153 16.2581 11.178 15.1207 11.178 13.7178C11.178 12.3147 12.3153 11.1774 13.7183 11.1774Z" fill="white"/>
<defs>
<radialGradient id="paint0_radial_495_67" cx="0" cy="0" r="1" gradientUnits="userSpaceOnUse" gradientTransform="translate(7.17191 29.0796) rotate(-90) scale(26.759 24.888)">
<stop stop-color="#FFDD55"/>
<stop offset="0.1" stop-color="#FFDD55"/>
<stop offset="0.5" stop-color="#FF543E"/>
<stop offset="1" stop-color="#C837AB"/>
</radialGradient>
<radialGradient id="paint1_radial_495_67" cx="0" cy="0" r="1" gradientUnits="userSpaceOnUse" gradientTransform="translate(-4.52264 1.94503) rotate(78.6806) scale(11.9614 49.3053)">
<stop stop-color="#3771C8"/>
<stop offset="0.128" stop-color="#3771C8"/>
<stop offset="1" stop-color="#6600FF" stop-opacity="0"/>
</radialGradient>
</defs>
</svg>
