<svg xmlns="http://www.w3.org/2000/svg" width="32" height="33" viewBox="0 0 32 33" fill="none">
    <circle cx="16.0133" cy="16.3352" r="15.8793" fill="#C7A7A1"/>
    <path fill-rule="evenodd" clip-rule="evenodd" d="M23.2973 11.9C22.2846 10.8873 20.6427 10.8873 19.63 11.9L14.8761 16.6539C14.576 16.954 14.0895 16.954 13.7895 16.6539C13.4894 16.3539 13.4894 15.8674 13.7895 15.5673L18.5434 10.8133C20.1562 9.20052 22.7711 9.20052 24.384 10.8133C25.9968 12.4262 25.9968 15.0411 24.384 16.6539L19.63 21.4079C19.33 21.7079 18.8435 21.7079 18.5434 21.4079C18.2433 21.1078 18.2433 20.6213 18.5434 20.3212L23.2973 15.5673C24.3101 14.5546 24.3101 12.9127 23.2973 11.9ZM14.0839 11.6058C14.3839 11.9058 14.3839 12.3923 14.0839 12.6924L9.32993 17.4463C8.31722 18.459 8.31722 20.1009 9.32993 21.1136C10.3426 22.1264 11.9846 22.1264 12.9973 21.1136L17.7512 16.3597C18.0513 16.0596 18.5378 16.0596 18.8378 16.3597C19.1379 16.6598 19.1379 17.1463 18.8378 17.4463L14.0839 22.2003C12.471 23.8131 9.85614 23.8131 8.24331 22.2003C6.63048 20.5874 6.63049 17.9725 8.24331 16.3597L12.9973 11.6058C13.2973 11.3057 13.7838 11.3057 14.0839 11.6058Z" fill="#742215"/>
</svg>