<svg width="27" height="27" viewBox="0 0 27 27" fill="none" xmlns="http://www.w3.org/2000/svg">
<g id="Group 305">
<circle id="Ellipse 48" cx="13.5" cy="13.5" r="13.5" fill="#E6C299"/>
<path id="Vector (Stroke)" fill-rule="evenodd" clip-rule="evenodd" d="M19.6926 9.72927C18.8316 8.86831 17.4357 8.86831 16.5748 9.72927L12.5331 13.7709C12.278 14.026 11.8644 14.026 11.6093 13.7709C11.3542 13.5158 11.3542 13.1022 11.6093 12.8471L15.651 8.80547C17.0221 7.43431 19.2452 7.43431 20.6164 8.80547C21.9876 10.1766 21.9876 12.3997 20.6164 13.7709L16.5748 17.8125C16.3197 18.0676 15.9061 18.0676 15.651 17.8125C15.3959 17.5574 15.3959 17.1438 15.651 16.8887L19.6926 12.8471C20.5536 11.9861 20.5536 10.5902 19.6926 9.72927ZM11.8596 9.47915C12.1147 9.73425 12.1147 10.1478 11.8596 10.403L7.81802 14.4446C6.95706 15.3055 6.95706 16.7014 7.81802 17.5624C8.67898 18.4234 10.0749 18.4234 10.9358 17.5624L14.9775 13.5208C15.2326 13.2657 15.6462 13.2657 15.9013 13.5208C16.1564 13.7759 16.1564 14.1895 15.9013 14.4446L11.8596 18.4862C10.4885 19.8574 8.26538 19.8574 6.89422 18.4862C5.52305 17.115 5.52305 14.8919 6.89422 13.5208L10.9358 9.47915C11.1909 9.22405 11.6045 9.22405 11.8596 9.47915Z" fill="#B67E5C"/>
</g>
</svg>
