<svg width="53" height="52" viewBox="0 0 53 52" fill="none" xmlns="http://www.w3.org/2000/svg">
<path id="Star 4" opacity="0.5" d="M22.7243 2.01965C24.7337 -0.149018 28.1637 -0.149018 30.173 2.01965C31.5048 3.45697 33.5447 3.9997 35.4146 3.41417L35.5255 3.37945C38.3136 2.50642 41.2518 4.20532 41.8861 7.05719C42.3092 8.9597 43.8015 10.4416 45.707 10.8514L45.8282 10.8774C48.6734 11.4893 50.3663 14.4262 49.4697 17.1949C48.871 19.0437 49.4202 21.0735 50.8676 22.3702C53.0526 24.3278 53.0526 27.7559 50.8676 29.7134C49.4202 31.0101 48.871 33.0399 49.4697 34.8887C50.3663 37.6574 48.6734 40.5943 45.8282 41.2062L45.707 41.2323C43.8015 41.6421 42.3092 43.1239 41.8861 45.0265C41.2518 47.8783 38.3136 49.5772 35.5255 48.7042L35.4146 48.6695C33.5447 48.084 31.5048 48.6267 30.173 50.064C28.1637 52.2327 24.7337 52.2327 22.7243 50.064C21.3926 48.6267 19.3526 48.084 17.4827 48.6695L17.3718 48.7042C14.5838 49.5772 11.6455 47.8783 11.0113 45.0265C10.5881 43.1239 9.0958 41.6421 7.19037 41.2323L7.06911 41.2062C4.22392 40.5943 2.53105 37.6574 3.42765 34.8887C4.02634 33.0399 3.4771 31.0101 2.02973 29.7134C-0.155256 27.7559 -0.155256 24.3278 2.02973 22.3702C3.4771 21.0735 4.02634 19.0437 3.42765 17.1949C2.53105 14.4262 4.22392 11.4893 7.06911 10.8774L7.19037 10.8514C9.0958 10.4416 10.5881 8.9597 11.0113 7.05719C11.6455 4.20532 14.5838 2.50642 17.3718 3.37945L17.4827 3.41417C19.3526 3.9997 21.3926 3.45697 22.7243 2.01965Z" fill="#FBE6BF"/>
</svg>
