<svg width="27" height="27" viewBox="0 0 27 27" fill="none" xmlns="http://www.w3.org/2000/svg">
<circle cx="13.5" cy="13.5" r="13.5" fill="#E6C299"/>
<path fill-rule="evenodd" clip-rule="evenodd" d="M5.00806 9.58071C5.00806 7.77687 6.47035 6.31458 8.27419 6.31458H18.2903C20.0941 6.31458 21.5564 7.77687 21.5564 9.5807V13.6063C21.5565 13.6099 21.5565 13.6135 21.5564 13.6171V17.7493C21.5564 19.5532 20.0941 21.0155 18.2903 21.0155H8.27419C6.47035 21.0155 5.00806 19.5532 5.00806 17.7493V9.58071ZM20.25 13.3429V9.5807C20.25 8.4984 19.3726 7.62103 18.2903 7.62103H8.27419C7.19189 7.62103 6.31451 8.4984 6.31451 9.58071V17.7493C6.31451 17.8329 6.31974 17.9152 6.32988 17.996L8.98839 16.3724C10.4375 15.4874 12.2679 15.5215 13.683 16.4598C14.9028 17.2686 16.5241 17.1023 17.5543 16.0628L20.25 13.3429ZM6.92036 19.1662L9.66932 17.4873C10.6854 16.8668 11.9688 16.8907 12.961 17.5487C14.7006 18.7021 17.013 18.465 18.4822 16.9825L20.25 15.1988V17.7493C20.25 18.8316 19.3726 19.709 18.2903 19.709H8.27419C7.74907 19.709 7.27219 19.5025 6.92036 19.1662ZM17.3397 8.65946C17.7004 8.65946 17.9929 8.95192 17.9929 9.31269V10.5943H18.8876C19.2483 10.5943 19.5408 10.8868 19.5408 11.2475C19.5408 11.6083 19.2483 11.9008 18.8876 11.9008H17.9929V13.1824C17.9929 13.5431 17.7004 13.8356 17.3397 13.8356C16.9789 13.8356 16.6864 13.5431 16.6864 13.1824V11.9008H15.7918C15.4311 11.9008 15.1386 11.6083 15.1386 11.2475C15.1386 10.8868 15.4311 10.5943 15.7918 10.5943H16.6864V9.31269C16.6864 8.95192 16.9789 8.65946 17.3397 8.65946ZM12.9305 12.8468C12.6437 12.8468 12.4113 13.0793 12.4113 13.3661C12.4113 13.6528 12.6437 13.8853 12.9305 13.8853C13.2173 13.8853 13.4497 13.6528 13.4497 13.3661C13.4497 13.0793 13.2173 12.8468 12.9305 12.8468ZM11.1048 13.3661C11.1048 12.3578 11.9222 11.5404 12.9305 11.5404C13.9388 11.5404 14.7562 12.3578 14.7562 13.3661C14.7562 14.3744 13.9388 15.1917 12.9305 15.1917C11.9222 15.1917 11.1048 14.3744 11.1048 13.3661Z" fill="#B67E5C"/>
</svg>
