<svg width="60" height="60" viewBox="0 0 60 60" fill="none" xmlns="http://www.w3.org/2000/svg">
<g id="Group 110">
<g id="Group 75">
<path id="Union" fill-rule="evenodd" clip-rule="evenodd" d="M27.8194 2.25469C28.3599 1.48639 29.4209 1.30175 30.1892 1.84229L36.4776 6.26647C37.0314 6.65612 37.282 7.31624 37.1762 7.9422C37.1717 7.994 37.1649 8.04605 37.1555 8.09822L31.4863 39.6678C31.3203 40.5924 30.4361 41.2073 29.5115 41.0413C28.5869 40.8752 27.972 39.9911 28.138 39.0665L33.6398 8.42932L28.2318 4.62453C27.4635 4.084 27.2789 3.02298 27.8194 2.25469Z" fill="url(#paint0_linear_124_1263)"/>
<g id="Union_2" filter="url(#filter0_bi_124_1263)">
<mask id="path-2-inside-1_124_1263" fill="white">
<path fill-rule="evenodd" clip-rule="evenodd" d="M23.264 15.834H16.0003C14.7947 15.834 13.8631 16.8927 14.0166 18.0885L18.2717 51.2542C18.3997 52.2522 19.2493 52.9997 20.2554 52.9997H23.264H36.8878H39.8964C40.9025 52.9997 41.7521 52.2522 41.8801 51.2542L46.1352 18.0885C46.2887 16.8927 45.3571 15.834 44.1515 15.834H36.8878H23.264Z"/>
</mask>
<path fill-rule="evenodd" clip-rule="evenodd" d="M23.264 15.834H16.0003C14.7947 15.834 13.8631 16.8927 14.0166 18.0885L18.2717 51.2542C18.3997 52.2522 19.2493 52.9997 20.2554 52.9997H23.264H36.8878H39.8964C40.9025 52.9997 41.7521 52.2522 41.8801 51.2542L46.1352 18.0885C46.2887 16.8927 45.3571 15.834 44.1515 15.834H36.8878H23.264Z" fill="url(#paint1_linear_124_1263)" fill-opacity="0.5"/>
<path d="M46.1352 18.0885L46.4328 18.1267L46.1352 18.0885ZM41.8801 51.2542L42.1777 51.2924L41.8801 51.2542ZM16.0003 16.134H23.264V15.534H16.0003V16.134ZM18.5693 51.216L14.3141 18.0503L13.719 18.1267L17.9741 51.2924L18.5693 51.216ZM23.264 52.6997H20.2554V53.2997H23.264V52.6997ZM23.264 53.2997H36.8878V52.6997H23.264V53.2997ZM36.8878 53.2997H39.8964V52.6997H36.8878V53.2997ZM42.1777 51.2924L46.4328 18.1267L45.8377 18.0503L41.5825 51.216L42.1777 51.2924ZM44.1515 15.534H36.8878V16.134H44.1515V15.534ZM36.8878 15.534H23.264V16.134H36.8878V15.534ZM46.4328 18.1267C46.6092 16.7515 45.5379 15.534 44.1515 15.534V16.134C45.1763 16.134 45.9681 17.0339 45.8377 18.0503L46.4328 18.1267ZM17.9741 51.2924C18.1214 52.4401 19.0983 53.2997 20.2554 53.2997V52.6997C19.4002 52.6997 18.6781 52.0643 18.5693 51.216L17.9741 51.2924ZM39.8964 53.2997C41.0535 53.2997 42.0304 52.4401 42.1777 51.2924L41.5825 51.216C41.4737 52.0643 40.7516 52.6997 39.8964 52.6997V53.2997ZM16.0003 15.534C14.6139 15.534 13.5426 16.7515 13.719 18.1267L14.3141 18.0503C14.1837 17.0339 14.9755 16.134 16.0003 16.134V15.534Z" fill="url(#paint2_linear_124_1263)" mask="url(#path-2-inside-1_124_1263)"/>
</g>
<g id="Group 65">
<g id="Union_3" filter="url(#filter1_b_124_1263)">
<path d="M20.756 27.6597C19.5796 27.6597 18.6572 28.6701 18.7642 29.8416L20.3219 46.8941C20.463 48.4388 21.7584 49.6212 23.3095 49.6212H35.782C37.3331 49.6212 38.6284 48.4388 38.7695 46.8941L40.3272 29.8416C40.4342 28.6701 39.5119 27.6597 38.3355 27.6597H20.756Z" fill="url(#paint3_linear_124_1263)" fill-opacity="0.7"/>
</g>
<rect id="Rectangle 2524" x="31.4602" y="24.2808" width="7.61308" height="7.61308" rx="1" transform="rotate(30 31.4602 24.2808)" fill="url(#paint4_linear_124_1263)"/>
<rect id="Rectangle 2525" x="21.9482" y="35.97" width="7.61308" height="7.61308" rx="1" transform="rotate(-15 21.9482 35.97)" fill="url(#paint5_linear_124_1263)"/>
<rect id="Rectangle 2526" x="31.4602" y="24.2808" width="7.61308" height="7.61308" rx="1" transform="rotate(30 31.4602 24.2808)" fill="url(#paint6_linear_124_1263)"/>
<rect id="Rectangle 2527" x="21.9482" y="35.97" width="7.61308" height="7.61308" rx="1" transform="rotate(-15 21.9482 35.97)" fill="url(#paint7_linear_124_1263)"/>
<rect id="Rectangle 2528" x="31.4602" y="24.2808" width="7.61308" height="7.61308" rx="1" transform="rotate(30 31.4602 24.2808)" fill="url(#paint8_linear_124_1263)"/>
<rect id="Rectangle 2529" x="21.948" y="35.97" width="7.61308" height="7.61308" rx="1" transform="rotate(-15 21.948 35.97)" fill="url(#paint9_linear_124_1263)"/>
</g>
<g id="Group 72">
<g id="Union_4" filter="url(#filter2_b_124_1263)">
<path d="M20.7564 27.6597C19.58 27.6597 18.6577 28.6701 18.7647 29.8416L20.3224 46.8941C20.4635 48.4388 21.7588 49.6212 23.31 49.6212H35.7824C37.3336 49.6212 38.6289 48.4388 38.77 46.8941L40.3277 29.8416C40.4347 28.6701 39.5124 27.6597 38.336 27.6597H20.7564Z" fill="url(#paint10_linear_124_1263)" fill-opacity="0.7"/>
</g>
<g id="Union_5" filter="url(#filter3_b_124_1263)">
<path d="M20.7567 27.6597C19.5803 27.6597 18.658 28.6701 18.765 29.8416L20.3226 46.8941C20.4637 48.4388 21.7591 49.6212 23.3102 49.6212H35.7827C37.3338 49.6212 38.6292 48.4388 38.7703 46.8941L40.3279 29.8416C40.4349 28.6701 39.5126 27.6597 38.3362 27.6597H20.7567Z" fill="url(#paint11_linear_124_1263)" fill-opacity="0.7"/>
</g>
<g id="Union_6" filter="url(#filter4_b_124_1263)">
<path d="M20.7567 27.6597C19.5803 27.6597 18.658 28.6701 18.765 29.8416L20.3226 46.8941C20.4637 48.4388 21.7591 49.6212 23.3102 49.6212H35.7827C37.3338 49.6212 38.6292 48.4388 38.7703 46.8941L40.3279 29.8416C40.4349 28.6701 39.5126 27.6597 38.3362 27.6597H20.7567Z" fill="url(#paint12_linear_124_1263)" fill-opacity="0.7"/>
</g>
<rect id="Rectangle 2524_2" x="31.4607" y="24.2808" width="7.61308" height="7.61308" rx="1" transform="rotate(30 31.4607 24.2808)" fill="url(#paint13_linear_124_1263)"/>
<rect id="Rectangle 2525_2" x="21.9487" y="35.97" width="7.61308" height="7.61308" rx="1" transform="rotate(-15 21.9487 35.97)" fill="url(#paint14_linear_124_1263)"/>
<rect id="Rectangle 2526_2" x="31.4607" y="24.2808" width="7.61308" height="7.61308" rx="1" transform="rotate(30 31.4607 24.2808)" fill="url(#paint15_linear_124_1263)"/>
<rect id="Rectangle 2527_2" x="21.9487" y="35.97" width="7.61308" height="7.61308" rx="1" transform="rotate(-15 21.9487 35.97)" fill="url(#paint16_linear_124_1263)"/>
<rect id="Rectangle 2528_2" x="31.4607" y="24.2808" width="7.61308" height="7.61308" rx="1" transform="rotate(30 31.4607 24.2808)" fill="url(#paint17_linear_124_1263)"/>
<rect id="Rectangle 2529_2" x="21.9485" y="35.97" width="7.61308" height="7.61308" rx="1" transform="rotate(-15 21.9485 35.97)" fill="url(#paint18_linear_124_1263)"/>
</g>
<rect id="Rectangle 2524_3" x="31.46" y="24.2808" width="7.61308" height="7.61308" rx="1" transform="rotate(30 31.46 24.2808)" fill="url(#paint19_linear_124_1263)"/>
<rect id="Rectangle 2525_3" x="21.9482" y="35.9699" width="7.61308" height="7.61308" rx="1" transform="rotate(-15 21.9482 35.9699)" fill="url(#paint20_linear_124_1263)"/>
<rect id="Rectangle 2526_3" x="31.46" y="24.2808" width="7.61308" height="7.61308" rx="1" transform="rotate(30 31.46 24.2808)" fill="url(#paint21_linear_124_1263)"/>
<rect id="Rectangle 2527_3" x="21.9482" y="35.9699" width="7.61308" height="7.61308" rx="1" transform="rotate(-15 21.9482 35.9699)" fill="url(#paint22_linear_124_1263)"/>
<rect id="Rectangle 2528_3" x="31.46" y="24.2808" width="7.61308" height="7.61308" rx="1" transform="rotate(30 31.46 24.2808)" fill="url(#paint23_linear_124_1263)"/>
<rect id="Rectangle 2529_3" x="21.9482" y="35.9699" width="7.61308" height="7.61308" rx="1" transform="rotate(-15 21.9482 35.9699)" fill="url(#paint24_linear_124_1263)"/>
</g>
</g>
<defs>
<filter id="filter0_bi_124_1263" x="12" y="13.834" width="36.1518" height="41.1657" filterUnits="userSpaceOnUse" color-interpolation-filters="sRGB">
<feFlood flood-opacity="0" result="BackgroundImageFix"/>
<feGaussianBlur in="BackgroundImageFix" stdDeviation="1"/>
<feComposite in2="SourceAlpha" operator="in" result="effect1_backgroundBlur_124_1263"/>
<feBlend mode="normal" in="SourceGraphic" in2="effect1_backgroundBlur_124_1263" result="shape"/>
<feColorMatrix in="SourceAlpha" type="matrix" values="0 0 0 0 0 0 0 0 0 0 0 0 0 0 0 0 0 0 127 0" result="hardAlpha"/>
<feOffset dy="-2"/>
<feGaussianBlur stdDeviation="2"/>
<feComposite in2="hardAlpha" operator="arithmetic" k2="-1" k3="1"/>
<feColorMatrix type="matrix" values="0 0 0 0 0.00784314 0 0 0 0 0.482353 0 0 0 0 0.933333 0 0 0 0.3 0"/>
<feBlend mode="normal" in2="shape" result="effect2_innerShadow_124_1263"/>
</filter>
<filter id="filter1_b_124_1263" x="15.7558" y="24.6597" width="27.5798" height="27.9616" filterUnits="userSpaceOnUse" color-interpolation-filters="sRGB">
<feFlood flood-opacity="0" result="BackgroundImageFix"/>
<feGaussianBlur in="BackgroundImageFix" stdDeviation="1.5"/>
<feComposite in2="SourceAlpha" operator="in" result="effect1_backgroundBlur_124_1263"/>
<feBlend mode="normal" in="SourceGraphic" in2="effect1_backgroundBlur_124_1263" result="shape"/>
</filter>
<filter id="filter2_b_124_1263" x="15.7563" y="24.6597" width="27.5798" height="27.9616" filterUnits="userSpaceOnUse" color-interpolation-filters="sRGB">
<feFlood flood-opacity="0" result="BackgroundImageFix"/>
<feGaussianBlur in="BackgroundImageFix" stdDeviation="1.5"/>
<feComposite in2="SourceAlpha" operator="in" result="effect1_backgroundBlur_124_1263"/>
<feBlend mode="normal" in="SourceGraphic" in2="effect1_backgroundBlur_124_1263" result="shape"/>
</filter>
<filter id="filter3_b_124_1263" x="15.7565" y="24.6597" width="27.5798" height="27.9616" filterUnits="userSpaceOnUse" color-interpolation-filters="sRGB">
<feFlood flood-opacity="0" result="BackgroundImageFix"/>
<feGaussianBlur in="BackgroundImageFix" stdDeviation="1.5"/>
<feComposite in2="SourceAlpha" operator="in" result="effect1_backgroundBlur_124_1263"/>
<feBlend mode="normal" in="SourceGraphic" in2="effect1_backgroundBlur_124_1263" result="shape"/>
</filter>
<filter id="filter4_b_124_1263" x="15.7565" y="24.6597" width="27.5798" height="27.9616" filterUnits="userSpaceOnUse" color-interpolation-filters="sRGB">
<feFlood flood-opacity="0" result="BackgroundImageFix"/>
<feGaussianBlur in="BackgroundImageFix" stdDeviation="1.5"/>
<feComposite in2="SourceAlpha" operator="in" result="effect1_backgroundBlur_124_1263"/>
<feBlend mode="normal" in="SourceGraphic" in2="effect1_backgroundBlur_124_1263" result="shape"/>
</filter>
<linearGradient id="paint0_linear_124_1263" x1="31.0476" y1="0.0342835" x2="35.2729" y2="20.2178" gradientUnits="userSpaceOnUse">
<stop stop-color="#047FFE"/>
<stop offset="1" stop-color="#80D0EC"/>
</linearGradient>
<linearGradient id="paint1_linear_124_1263" x1="28.1257" y1="3.52019" x2="32.227" y2="70.2226" gradientUnits="userSpaceOnUse">
<stop stop-color="#80D0EC"/>
<stop offset="1" stop-color="#00D0EC" stop-opacity="0"/>
</linearGradient>
<linearGradient id="paint2_linear_124_1263" x1="-0.14087" y1="19.2127" x2="36.0815" y2="53.3078" gradientUnits="userSpaceOnUse">
<stop stop-color="#80D0EC" stop-opacity="0.1"/>
<stop offset="1" stop-color="#047FFE" stop-opacity="0.5"/>
</linearGradient>
<linearGradient id="paint3_linear_124_1263" x1="18.9482" y1="54.4995" x2="19.1977" y2="24.0016" gradientUnits="userSpaceOnUse">
<stop stop-color="#80D0EC"/>
<stop offset="1" stop-color="#047FFE" stop-opacity="0"/>
</linearGradient>
<linearGradient id="paint4_linear_124_1263" x1="35.2667" y1="24.2808" x2="33.1381" y2="32.2249" gradientUnits="userSpaceOnUse">
<stop stop-color="#047FFE"/>
<stop offset="1" stop-color="#80D0EC" stop-opacity="0"/>
</linearGradient>
<linearGradient id="paint5_linear_124_1263" x1="25.7548" y1="35.97" x2="23.6262" y2="43.9141" gradientUnits="userSpaceOnUse">
<stop stop-color="#047FFE"/>
<stop offset="1" stop-color="#80D0EC" stop-opacity="0"/>
</linearGradient>
<linearGradient id="paint6_linear_124_1263" x1="35.2667" y1="24.2808" x2="33.1381" y2="32.2249" gradientUnits="userSpaceOnUse">
<stop stop-color="#047FFE"/>
<stop offset="1" stop-color="#80D0EC" stop-opacity="0"/>
</linearGradient>
<linearGradient id="paint7_linear_124_1263" x1="25.7548" y1="35.97" x2="23.6262" y2="43.9141" gradientUnits="userSpaceOnUse">
<stop stop-color="#047FFE"/>
<stop offset="1" stop-color="#80D0EC" stop-opacity="0"/>
</linearGradient>
<linearGradient id="paint8_linear_124_1263" x1="35.2667" y1="24.2808" x2="33.1381" y2="32.2249" gradientUnits="userSpaceOnUse">
<stop stop-color="#047FFE"/>
<stop offset="1" stop-color="#80D0EC" stop-opacity="0"/>
</linearGradient>
<linearGradient id="paint9_linear_124_1263" x1="25.7545" y1="35.97" x2="23.6259" y2="43.9141" gradientUnits="userSpaceOnUse">
<stop stop-color="#047FFE"/>
<stop offset="1" stop-color="#80D0EC" stop-opacity="0"/>
</linearGradient>
<linearGradient id="paint10_linear_124_1263" x1="18.9487" y1="54.4995" x2="19.1982" y2="24.0016" gradientUnits="userSpaceOnUse">
<stop stop-color="#80D0EC"/>
<stop offset="1" stop-color="#047FFE" stop-opacity="0"/>
</linearGradient>
<linearGradient id="paint11_linear_124_1263" x1="18.949" y1="54.4995" x2="19.1984" y2="24.0016" gradientUnits="userSpaceOnUse">
<stop stop-color="#80D0EC"/>
<stop offset="1" stop-color="#047FFE" stop-opacity="0"/>
</linearGradient>
<linearGradient id="paint12_linear_124_1263" x1="18.949" y1="54.4995" x2="19.1657" y2="28.0013" gradientUnits="userSpaceOnUse">
<stop stop-color="#80D0EC"/>
<stop offset="1" stop-color="#047FFE" stop-opacity="0"/>
</linearGradient>
<linearGradient id="paint13_linear_124_1263" x1="35.2672" y1="24.2808" x2="33.1386" y2="32.2249" gradientUnits="userSpaceOnUse">
<stop stop-color="#047FFE"/>
<stop offset="1" stop-color="#80D0EC" stop-opacity="0"/>
</linearGradient>
<linearGradient id="paint14_linear_124_1263" x1="25.7553" y1="35.97" x2="23.6267" y2="43.9141" gradientUnits="userSpaceOnUse">
<stop stop-color="#047FFE"/>
<stop offset="1" stop-color="#80D0EC" stop-opacity="0"/>
</linearGradient>
<linearGradient id="paint15_linear_124_1263" x1="35.2672" y1="24.2808" x2="33.1386" y2="32.2249" gradientUnits="userSpaceOnUse">
<stop stop-color="#047FFE"/>
<stop offset="1" stop-color="#80D0EC" stop-opacity="0"/>
</linearGradient>
<linearGradient id="paint16_linear_124_1263" x1="25.7553" y1="35.97" x2="23.6267" y2="43.9141" gradientUnits="userSpaceOnUse">
<stop stop-color="#047FFE"/>
<stop offset="1" stop-color="#80D0EC" stop-opacity="0"/>
</linearGradient>
<linearGradient id="paint17_linear_124_1263" x1="35.2672" y1="24.2808" x2="33.1386" y2="32.2249" gradientUnits="userSpaceOnUse">
<stop stop-color="#047FFE"/>
<stop offset="1" stop-color="#80D0EC" stop-opacity="0"/>
</linearGradient>
<linearGradient id="paint18_linear_124_1263" x1="25.755" y1="35.97" x2="23.6264" y2="43.9141" gradientUnits="userSpaceOnUse">
<stop stop-color="#047FFE"/>
<stop offset="1" stop-color="#80D0EC" stop-opacity="0"/>
</linearGradient>
<linearGradient id="paint19_linear_124_1263" x1="35.2665" y1="24.2808" x2="33.1379" y2="32.2249" gradientUnits="userSpaceOnUse">
<stop stop-color="#047FFE"/>
<stop offset="1" stop-color="#80D0EC" stop-opacity="0"/>
</linearGradient>
<linearGradient id="paint20_linear_124_1263" x1="25.7548" y1="35.9699" x2="23.6262" y2="43.914" gradientUnits="userSpaceOnUse">
<stop stop-color="#047FFE"/>
<stop offset="1" stop-color="#80D0EC" stop-opacity="0"/>
</linearGradient>
<linearGradient id="paint21_linear_124_1263" x1="35.2665" y1="24.2808" x2="33.1379" y2="32.2249" gradientUnits="userSpaceOnUse">
<stop stop-color="#047FFE"/>
<stop offset="1" stop-color="#80D0EC" stop-opacity="0"/>
</linearGradient>
<linearGradient id="paint22_linear_124_1263" x1="25.7548" y1="35.9699" x2="23.6262" y2="43.914" gradientUnits="userSpaceOnUse">
<stop stop-color="#047FFE"/>
<stop offset="1" stop-color="#80D0EC" stop-opacity="0"/>
</linearGradient>
<linearGradient id="paint23_linear_124_1263" x1="35.2665" y1="24.2808" x2="33.1379" y2="32.2249" gradientUnits="userSpaceOnUse">
<stop stop-color="#047FFE"/>
<stop offset="1" stop-color="#80D0EC" stop-opacity="0"/>
</linearGradient>
<linearGradient id="paint24_linear_124_1263" x1="25.7548" y1="35.9699" x2="23.6262" y2="43.914" gradientUnits="userSpaceOnUse">
<stop stop-color="#047FFE"/>
<stop offset="1" stop-color="#80D0EC" stop-opacity="0"/>
</linearGradient>
</defs>
</svg>
