<svg width="60" height="60" viewBox="0 0 60 60" fill="none" xmlns="http://www.w3.org/2000/svg">
<g id="Group 108">
<g id="Group 74">
<g id="Group 67">
<g id="Group 59">
<g id="Rectangle 2531">
<rect x="29.1241" y="42.55" width="15.8678" height="3.96695" rx="1.98347" transform="rotate(-45 29.1241 42.55)" fill="#D9D9D9"/>
<rect x="29.1241" y="42.55" width="15.8678" height="3.96695" rx="1.98347" transform="rotate(-45 29.1241 42.55)" fill="url(#paint0_linear_124_1168)"/>
</g>
<path id="Subtract" fill-rule="evenodd" clip-rule="evenodd" d="M44.1552 51.7944C44.3217 52.0762 44.5259 52.3418 44.7681 52.584C46.3173 54.1331 48.829 54.1331 50.3782 52.584C51.9274 51.0348 51.9274 48.523 50.3782 46.9739C50.136 46.7317 49.8704 46.5274 49.5886 46.361L44.1552 51.7944Z" fill="url(#paint1_linear_124_1168)"/>
<g id="Subtract_2">
<mask id="path-3-inside-1_124_1168" fill="white">
<path fill-rule="evenodd" clip-rule="evenodd" d="M39.0646 31.3577C39.4093 31.013 39.6232 30.5543 39.6224 30.0669C39.617 27.0691 38.4707 24.0729 36.1835 21.7856C31.5983 17.2004 24.1642 17.2004 19.579 21.7856C14.9937 26.3708 14.9937 33.8049 19.579 38.3901C21.8662 40.6774 24.8624 41.8237 27.8602 41.829C28.3476 41.8299 28.8064 41.616 29.151 41.2713L39.0646 31.3577Z"/>
</mask>
<g filter="url(#filter0_i_124_1168)">
<path fill-rule="evenodd" clip-rule="evenodd" d="M39.0646 31.3577C39.4093 31.013 39.6232 30.5543 39.6224 30.0669C39.617 27.0691 38.4707 24.0729 36.1835 21.7856C31.5983 17.2004 24.1642 17.2004 19.579 21.7856C14.9937 26.3708 14.9937 33.8049 19.579 38.3901C21.8662 40.6774 24.8624 41.8237 27.8602 41.829C28.3476 41.8299 28.8064 41.616 29.151 41.2713L39.0646 31.3577Z" fill="url(#paint2_linear_124_1168)" fill-opacity="0.5"/>
</g>
<path d="M27.8602 41.829L27.8597 42.129L27.8602 41.829ZM39.6224 30.0669L39.3224 30.0674L39.6224 30.0669ZM35.9713 21.9978C38.2002 24.2267 39.3172 27.1457 39.3224 30.0674L39.9224 30.0664C39.9169 26.9924 38.7412 23.9191 36.3956 21.5735L35.9713 21.9978ZM19.7911 21.9978C24.2591 17.5297 31.5033 17.5297 35.9713 21.9978L36.3956 21.5735C31.6932 16.8711 24.0692 16.8711 19.3668 21.5735L19.7911 21.9978ZM19.7911 38.178C15.323 33.71 15.323 26.4658 19.7911 21.9978L19.3668 21.5735C14.6645 26.2759 14.6645 33.8999 19.3668 38.6023L19.7911 38.178ZM27.8607 41.529C24.9391 41.5238 22.02 40.4069 19.7911 38.178L19.3668 38.6023C21.7125 40.9479 24.7857 42.1236 27.8597 42.129L27.8607 41.529ZM29.3631 41.4834L39.2768 31.5698L38.8525 31.1456L28.9389 41.0592L29.3631 41.4834ZM27.8597 42.129C28.4368 42.1301 28.9695 41.8771 29.3631 41.4834L28.9389 41.0592C28.6432 41.3549 28.2585 41.5297 27.8607 41.529L27.8597 42.129ZM39.3224 30.0674C39.3231 30.4652 39.1482 30.8499 38.8525 31.1456L39.2768 31.5698C39.6704 31.1762 39.9234 30.6434 39.9224 30.0664L39.3224 30.0674Z" fill="url(#paint3_linear_124_1168)" mask="url(#path-3-inside-1_124_1168)"/>
</g>
<rect id="Rectangle 2536" x="25.1714" y="10.5029" width="7.78225" height="7.78225" rx="1" transform="rotate(-45 25.1714 10.5029)" fill="url(#paint4_linear_124_1168)"/>
<path id="Polygon 3" d="M11.9441 48.5579C11.2006 48.7572 10.5201 48.0768 10.7194 47.3332L12.5305 40.5739C12.7298 39.8303 13.6592 39.5813 14.2036 40.1256L19.1517 45.0738C19.696 45.6181 19.447 46.5476 18.7034 46.7468L11.9441 48.5579Z" fill="url(#paint5_linear_124_1168)"/>
<g id="Union" filter="url(#filter1_b_124_1168)">
<mask id="path-7-inside-2_124_1168" fill="white">
<path fill-rule="evenodd" clip-rule="evenodd" d="M35.6417 38.9344C35.6417 38.9343 35.6417 38.9342 35.6417 38.9342L40.4526 34.1233C40.8896 33.6863 41.6143 33.7463 41.9734 34.2492L50.2045 45.7726C50.4886 46.1704 50.4435 46.7152 50.0978 47.0609L47.8772 49.2815C47.8771 49.2816 47.8771 49.2817 47.8772 49.2818C47.8773 49.2818 47.8773 49.2819 47.8772 49.282L44.7125 52.4467C44.3669 52.7923 43.822 52.8374 43.4242 52.5533L31.9008 44.3223C31.3979 43.9631 31.3379 43.2384 31.7749 42.8014L35.6417 38.9346C35.6418 38.9346 35.6418 38.9345 35.6417 38.9344Z"/>
</mask>
<path fill-rule="evenodd" clip-rule="evenodd" d="M35.6417 38.9344C35.6417 38.9343 35.6417 38.9342 35.6417 38.9342L40.4526 34.1233C40.8896 33.6863 41.6143 33.7463 41.9734 34.2492L50.2045 45.7726C50.4886 46.1704 50.4435 46.7152 50.0978 47.0609L47.8772 49.2815C47.8771 49.2816 47.8771 49.2817 47.8772 49.2818C47.8773 49.2818 47.8773 49.2819 47.8772 49.282L44.7125 52.4467C44.3669 52.7923 43.822 52.8374 43.4242 52.5533L31.9008 44.3223C31.3979 43.9631 31.3379 43.2384 31.7749 42.8014L35.6417 38.9346C35.6418 38.9346 35.6418 38.9345 35.6417 38.9344Z" fill="url(#paint6_linear_124_1168)" fill-opacity="0.5"/>
<path d="M35.6417 38.9346L35.8538 39.1467L35.6417 38.9346ZM31.9008 44.3223L32.0751 44.0782L31.9008 44.3223ZM44.7125 52.4467L44.9246 52.6588L44.7125 52.4467ZM43.4242 52.5533L43.2498 52.7974L43.4242 52.5533ZM47.8772 49.282L48.0893 49.4941L47.8772 49.282ZM47.8772 49.2815L48.0893 49.4937L47.8772 49.2815ZM50.2045 45.7726L49.9603 45.9469L50.2045 45.7726ZM35.6417 38.9342L35.8538 39.1463L35.6417 38.9342ZM40.4526 34.1233L40.2405 33.9112L40.4526 34.1233ZM41.9734 34.2492L41.7293 34.4235L41.9734 34.2492ZM40.2405 33.9112L35.4296 38.722L35.8538 39.1463L40.6647 34.3354L40.2405 33.9112ZM50.4486 45.5982L42.2176 34.0748L41.7293 34.4235L49.9603 45.9469L50.4486 45.5982ZM48.0893 49.4937L50.31 47.273L49.8857 46.8488L47.6651 49.0694L48.0893 49.4937ZM47.6651 49.0698L44.5004 52.2345L44.9246 52.6588L48.0893 49.4941L47.6651 49.0698ZM43.5985 52.3092L32.0751 44.0782L31.7264 44.5664L43.2498 52.7974L43.5985 52.3092ZM31.987 43.0136L35.8538 39.1467L35.4296 38.7225L31.5628 42.5893L31.987 43.0136ZM35.8538 39.1467C35.9709 39.0297 35.9712 38.8396 35.8538 38.7223L35.4296 39.1465C35.3123 39.0293 35.3126 38.8394 35.4296 38.7225L35.8538 39.1467ZM32.0751 44.0782C31.7231 43.8267 31.6812 43.3194 31.987 43.0136L31.5628 42.5893C30.9947 43.1573 31.0727 44.0995 31.7264 44.5664L32.0751 44.0782ZM44.5004 52.2345C44.2584 52.4765 43.877 52.5081 43.5985 52.3092L43.2498 52.7974C43.7669 53.1668 44.4753 53.1082 44.9246 52.6588L44.5004 52.2345ZM47.6651 49.4939C47.548 49.3768 47.548 49.1869 47.6651 49.0698L48.0893 49.4941C48.2066 49.3769 48.2066 49.1868 48.0893 49.0696L47.6651 49.4939ZM47.6651 49.0694C47.5479 49.1866 47.5479 49.3767 47.6651 49.4939L48.0893 49.0696C48.2064 49.1867 48.2064 49.3766 48.0893 49.4937L47.6651 49.0694ZM49.9603 45.9469C50.1592 46.2254 50.1277 46.6068 49.8857 46.8488L50.31 47.273C50.7593 46.8237 50.8179 46.1153 50.4486 45.5982L49.9603 45.9469ZM35.4296 38.722C35.3125 38.8391 35.3122 39.0291 35.4296 39.1465L35.8538 38.7223C35.9711 38.8395 35.9708 39.0294 35.8538 39.1463L35.4296 38.722ZM40.6647 34.3354C40.9706 34.0296 41.4779 34.0715 41.7293 34.4235L42.2176 34.0748C41.7506 33.4211 40.8085 33.3431 40.2405 33.9112L40.6647 34.3354Z" fill="url(#paint7_linear_124_1168)" mask="url(#path-7-inside-2_124_1168)"/>
</g>
<circle id="Ellipse 26" cx="24.5836" cy="10.6188" r="4.39824" transform="rotate(15 24.5836 10.6188)" fill="url(#paint8_linear_124_1168)" fill-opacity="0.7"/>
<rect id="Rectangle 2532" x="29.1241" y="42.55" width="15.8678" height="3.96695" rx="1.98347" transform="rotate(-45 29.1241 42.55)" fill="url(#paint9_linear_124_1168)"/>
</g>
<g id="Rectangle 2531_2">
<rect x="29.1241" y="42.55" width="15.8678" height="3.96695" rx="1.98347" transform="rotate(-45 29.1241 42.55)" fill="#D9D9D9"/>
<rect x="29.1241" y="42.55" width="15.8678" height="3.96695" rx="1.98347" transform="rotate(-45 29.1241 42.55)" fill="url(#paint10_linear_124_1168)"/>
</g>
<path id="Subtract_3" fill-rule="evenodd" clip-rule="evenodd" d="M44.1551 51.7945C44.3216 52.0763 44.5259 52.342 44.768 52.5841C46.3172 54.1333 48.8289 54.1333 50.3781 52.5841C51.9273 51.0349 51.9273 48.5232 50.3781 46.974C50.136 46.7319 49.8703 46.5276 49.5885 46.3611L44.1551 51.7945Z" fill="url(#paint11_linear_124_1168)"/>
<g id="Subtract_4">
<mask id="path-13-inside-3_124_1168" fill="white">
<path fill-rule="evenodd" clip-rule="evenodd" d="M39.0646 31.3577C39.4093 31.013 39.6232 30.5543 39.6223 30.0669C39.617 27.0691 38.4707 24.0729 36.1834 21.7856C31.5982 17.2004 24.1641 17.2004 19.5789 21.7856C14.9937 26.3708 14.9937 33.8049 19.5789 38.3901C21.8662 40.6774 24.8624 41.8237 27.8602 41.829C28.3476 41.8299 28.8063 41.616 29.151 41.2713L39.0646 31.3577Z"/>
</mask>
<g filter="url(#filter2_i_124_1168)">
<path fill-rule="evenodd" clip-rule="evenodd" d="M39.0646 31.3577C39.4093 31.013 39.6232 30.5543 39.6223 30.0669C39.617 27.0691 38.4707 24.0729 36.1834 21.7856C31.5982 17.2004 24.1641 17.2004 19.5789 21.7856C14.9937 26.3708 14.9937 33.8049 19.5789 38.3901C21.8662 40.6774 24.8624 41.8237 27.8602 41.829C28.3476 41.8299 28.8063 41.616 29.151 41.2713L39.0646 31.3577Z" fill="url(#paint12_linear_124_1168)" fill-opacity="0.5"/>
</g>
<path d="M27.8602 41.829L27.8596 42.129L27.8602 41.829ZM39.6223 30.0669L39.3223 30.0674L39.6223 30.0669ZM35.9713 21.9978C38.2002 24.2267 39.3171 27.1457 39.3223 30.0674L39.9223 30.0664C39.9169 26.9924 38.7412 23.9191 36.3956 21.5735L35.9713 21.9978ZM19.7911 21.9978C24.2591 17.5297 31.5033 17.5297 35.9713 21.9978L36.3956 21.5735C31.6932 16.8711 24.0692 16.8711 19.3668 21.5735L19.7911 21.9978ZM19.7911 38.178C15.323 33.71 15.323 26.4658 19.7911 21.9978L19.3668 21.5735C14.6644 26.2759 14.6644 33.8999 19.3668 38.6023L19.7911 38.178ZM27.8607 41.529C24.939 41.5238 22.0199 40.4069 19.7911 38.178L19.3668 38.6023C21.7124 40.9479 24.7857 42.1236 27.8596 42.129L27.8607 41.529ZM29.3631 41.4834L39.2767 31.5698L38.8525 31.1456L28.9388 41.0592L29.3631 41.4834ZM27.8596 42.129C28.4367 42.1301 28.9695 41.8771 29.3631 41.4834L28.9388 41.0592C28.6432 41.3549 28.2585 41.5297 27.8607 41.529L27.8596 42.129ZM39.3223 30.0674C39.323 30.4652 39.1482 30.8499 38.8525 31.1456L39.2767 31.5698C39.6704 31.1762 39.9234 30.6434 39.9223 30.0664L39.3223 30.0674Z" fill="url(#paint13_linear_124_1168)" mask="url(#path-13-inside-3_124_1168)"/>
</g>
<rect id="Rectangle 2536_2" x="25.1714" y="10.5029" width="7.78225" height="7.78225" rx="1" transform="rotate(-45 25.1714 10.5029)" fill="url(#paint14_linear_124_1168)"/>
<path id="Polygon 3_2" d="M11.9441 48.5578C11.2005 48.757 10.5201 48.0766 10.7193 47.333L12.5305 40.5738C12.7297 39.8302 13.6592 39.5812 14.2035 40.1255L19.1516 45.0736C19.696 45.6179 19.4469 46.5474 18.7033 46.7466L11.9441 48.5578Z" fill="url(#paint15_linear_124_1168)"/>
<g id="Union_2" filter="url(#filter3_b_124_1168)">
<mask id="path-17-inside-4_124_1168" fill="white">
<path fill-rule="evenodd" clip-rule="evenodd" d="M35.6417 38.9344C35.6417 38.9343 35.6417 38.9342 35.6417 38.9341L40.4526 34.1232C40.8896 33.6863 41.6143 33.7463 41.9735 34.2491L50.2045 45.7725C50.4886 46.1703 50.4435 46.7152 50.0979 47.0609L47.8772 49.2815C47.8772 49.2816 47.8772 49.2817 47.8772 49.2817C47.8773 49.2818 47.8773 49.2819 47.8772 49.2819L44.7125 52.4466C44.3669 52.7923 43.822 52.8374 43.4242 52.5532L31.9008 44.3222C31.398 43.9631 31.338 43.2383 31.7749 42.8014L35.6417 38.9346C35.6418 38.9345 35.6418 38.9344 35.6417 38.9344Z"/>
</mask>
<path fill-rule="evenodd" clip-rule="evenodd" d="M35.6417 38.9344C35.6417 38.9343 35.6417 38.9342 35.6417 38.9341L40.4526 34.1232C40.8896 33.6863 41.6143 33.7463 41.9735 34.2491L50.2045 45.7725C50.4886 46.1703 50.4435 46.7152 50.0979 47.0609L47.8772 49.2815C47.8772 49.2816 47.8772 49.2817 47.8772 49.2817C47.8773 49.2818 47.8773 49.2819 47.8772 49.2819L44.7125 52.4466C44.3669 52.7923 43.822 52.8374 43.4242 52.5532L31.9008 44.3222C31.398 43.9631 31.338 43.2383 31.7749 42.8014L35.6417 38.9346C35.6418 38.9345 35.6418 38.9344 35.6417 38.9344Z" fill="url(#paint16_linear_124_1168)" fill-opacity="0.5"/>
<path d="M35.6417 38.9346L35.8539 39.1467L35.6417 38.9346ZM31.9008 44.3222L32.0752 44.0781L31.9008 44.3222ZM44.7125 52.4466L44.5004 52.2345L44.7125 52.4466ZM43.4242 52.5532L43.2498 52.7974L43.4242 52.5532ZM47.8772 49.2819L48.0894 49.4941L47.8772 49.2819ZM47.8772 49.2815L48.0894 49.4936L47.8772 49.2815ZM50.2045 45.7725L49.9604 45.9469L50.2045 45.7725ZM35.6417 38.9341L35.8539 39.1463L35.6417 38.9341ZM40.4526 34.1232L40.2405 33.9111L40.4526 34.1232ZM41.9735 34.2491L41.7294 34.4235L41.9735 34.2491ZM40.2405 33.9111L35.4296 38.722L35.8539 39.1463L40.6648 34.3354L40.2405 33.9111ZM50.4486 45.5982L42.2176 34.0747L41.7294 34.4235L49.9604 45.9469L50.4486 45.5982ZM48.0894 49.4936L50.31 47.273L49.8857 46.8487L47.6651 49.0694L48.0894 49.4936ZM47.6651 49.0698L44.5004 52.2345L44.9247 52.6588L48.0894 49.4941L47.6651 49.0698ZM43.5986 52.3091L32.0752 44.0781L31.7264 44.5664L43.2498 52.7974L43.5986 52.3091ZM31.9871 43.0135L35.8539 39.1467L35.4296 38.7224L31.5628 42.5893L31.9871 43.0135ZM35.8539 39.1467C35.971 39.0296 35.9712 38.8396 35.8539 38.7222L35.4296 39.1465C35.3124 39.0293 35.3127 38.8394 35.4296 38.7224L35.8539 39.1467ZM32.0752 44.0781C31.7232 43.8267 31.6812 43.3194 31.9871 43.0135L31.5628 42.5893C30.9948 43.1573 31.0727 44.0994 31.7264 44.5664L32.0752 44.0781ZM44.5004 52.2345C44.2585 52.4765 43.877 52.508 43.5986 52.3091L43.2498 52.7974C43.767 53.1667 44.4753 53.1081 44.9247 52.6588L44.5004 52.2345ZM47.6651 49.4938C47.548 49.3767 47.548 49.1869 47.6651 49.0698L48.0894 49.4941C48.2066 49.3768 48.2066 49.1868 48.0894 49.0696L47.6651 49.4938ZM47.6651 49.0694C47.5479 49.1866 47.5479 49.3766 47.6651 49.4938L48.0894 49.0696C48.2065 49.1867 48.2065 49.3765 48.0894 49.4936L47.6651 49.0694ZM49.9604 45.9469C50.1593 46.2253 50.1277 46.6068 49.8857 46.8487L50.31 47.273C50.7594 46.8236 50.818 46.1153 50.4486 45.5982L49.9604 45.9469ZM35.4296 38.722C35.3126 38.839 35.3122 39.0291 35.4296 39.1465L35.8539 38.7222C35.9712 38.8395 35.9708 39.0294 35.8539 39.1463L35.4296 38.722ZM40.6648 34.3354C40.9706 34.0295 41.4779 34.0715 41.7294 34.4235L42.2176 34.0747C41.7507 33.4211 40.8085 33.3431 40.2405 33.9111L40.6648 34.3354Z" fill="url(#paint17_linear_124_1168)" mask="url(#path-17-inside-4_124_1168)"/>
</g>
<circle id="Ellipse 26_2" cx="24.5835" cy="10.6189" r="4.39824" transform="rotate(15 24.5835 10.6189)" fill="url(#paint18_linear_124_1168)" fill-opacity="0.7"/>
<rect id="Rectangle 2532_2" x="29.1241" y="42.55" width="15.8678" height="3.96695" rx="1.98347" transform="rotate(-45 29.1241 42.55)" fill="url(#paint19_linear_124_1168)"/>
</g>
<g id="Group 71" opacity="0.5">
<g id="Group 59_2">
<g id="Rectangle 2531_3">
<rect x="29.3072" y="42.55" width="15.8678" height="3.96695" rx="1.98347" transform="rotate(-45 29.3072 42.55)" fill="#D9D9D9"/>
<rect x="29.3072" y="42.55" width="15.8678" height="3.96695" rx="1.98347" transform="rotate(-45 29.3072 42.55)" fill="url(#paint20_linear_124_1168)"/>
</g>
<path id="Subtract_5" fill-rule="evenodd" clip-rule="evenodd" d="M44.3383 51.7944C44.5048 52.0762 44.709 52.3418 44.9512 52.584C46.5004 54.1331 49.0121 54.1331 50.5613 52.584C52.1105 51.0348 52.1105 48.523 50.5613 46.9739C50.3192 46.7317 50.0535 46.5274 49.7717 46.361L44.3383 51.7944Z" fill="url(#paint21_linear_124_1168)"/>
<g id="Subtract_6">
<mask id="path-23-inside-5_124_1168" fill="white">
<path fill-rule="evenodd" clip-rule="evenodd" d="M39.2477 31.3577C39.5924 31.013 39.8063 30.5543 39.8055 30.0669C39.8001 27.0691 38.6538 24.0729 36.3666 21.7856C31.7814 17.2004 24.3473 17.2004 19.7621 21.7856C15.1769 26.3708 15.1769 33.8049 19.7621 38.3901C22.0493 40.6774 25.0455 41.8237 28.0433 41.829C28.5307 41.8299 28.9895 41.616 29.3341 41.2713L39.2477 31.3577Z"/>
</mask>
<g filter="url(#filter4_i_124_1168)">
<path fill-rule="evenodd" clip-rule="evenodd" d="M39.2477 31.3577C39.5924 31.013 39.8063 30.5543 39.8055 30.0669C39.8001 27.0691 38.6538 24.0729 36.3666 21.7856C31.7814 17.2004 24.3473 17.2004 19.7621 21.7856C15.1769 26.3708 15.1769 33.8049 19.7621 38.3901C22.0493 40.6774 25.0455 41.8237 28.0433 41.829C28.5307 41.8299 28.9895 41.616 29.3341 41.2713L39.2477 31.3577Z" fill="url(#paint22_linear_124_1168)" fill-opacity="0.5"/>
</g>
<path d="M28.0433 41.829L28.0428 42.129L28.0433 41.829ZM39.8055 30.0669L39.5055 30.0674L39.8055 30.0669ZM36.1544 21.9978C38.3833 24.2267 39.5003 27.1457 39.5055 30.0674L40.1055 30.0664C40.1 26.9924 38.9243 23.9191 36.5787 21.5735L36.1544 21.9978ZM19.9742 21.9978C24.4422 17.5297 31.6864 17.5297 36.1544 21.9978L36.5787 21.5735C31.8763 16.8711 24.2523 16.8711 19.5499 21.5735L19.9742 21.9978ZM19.9742 38.178C15.5061 33.71 15.5061 26.4658 19.9742 21.9978L19.5499 21.5735C14.8476 26.2759 14.8476 33.8999 19.5499 38.6023L19.9742 38.178ZM28.0439 41.529C25.1222 41.5238 22.2031 40.4069 19.9742 38.178L19.5499 38.6023C21.8956 40.9479 24.9688 42.1236 28.0428 42.129L28.0439 41.529ZM29.5462 41.4834L39.4599 31.5698L39.0356 31.1456L29.122 41.0592L29.5462 41.4834ZM28.0428 42.129C28.6199 42.1301 29.1526 41.8771 29.5462 41.4834L29.122 41.0592C28.8263 41.3549 28.4416 41.5297 28.0439 41.529L28.0428 42.129ZM39.5055 30.0674C39.5062 30.4652 39.3313 30.8499 39.0356 31.1456L39.4599 31.5698C39.8535 31.1762 40.1065 30.6434 40.1055 30.0664L39.5055 30.0674Z" fill="url(#paint23_linear_124_1168)" mask="url(#path-23-inside-5_124_1168)"/>
</g>
<rect id="Rectangle 2536_3" x="25.3546" y="10.5029" width="7.78225" height="7.78225" rx="1" transform="rotate(-45 25.3546 10.5029)" fill="url(#paint24_linear_124_1168)"/>
<path id="Polygon 3_3" d="M12.1272 48.5579C11.3837 48.7572 10.7032 48.0768 10.9025 47.3332L12.7136 40.5739C12.9129 39.8303 13.8423 39.5813 14.3867 40.1256L19.3348 45.0738C19.8791 45.6181 19.6301 46.5476 18.8865 46.7468L12.1272 48.5579Z" fill="url(#paint25_linear_124_1168)"/>
<g id="Union_3" filter="url(#filter5_b_124_1168)">
<mask id="path-27-inside-6_124_1168" fill="white">
<path fill-rule="evenodd" clip-rule="evenodd" d="M35.8248 38.9344C35.8248 38.9343 35.8248 38.9342 35.8248 38.9342L40.6357 34.1233C41.0727 33.6863 41.7974 33.7463 42.1565 34.2492L50.3876 45.7726C50.6717 46.1704 50.6266 46.7152 50.2809 47.0609L48.0603 49.2815C48.0603 49.2816 48.0603 49.2817 48.0603 49.2818C48.0604 49.2818 48.0604 49.2819 48.0603 49.282L44.8956 52.4467C44.55 52.7923 44.0051 52.8374 43.6073 52.5533L32.0839 44.3223C31.581 43.9631 31.521 43.2384 31.958 42.8014L35.8248 38.9346C35.8249 38.9346 35.8249 38.9345 35.8248 38.9344Z"/>
</mask>
<path fill-rule="evenodd" clip-rule="evenodd" d="M35.8248 38.9344C35.8248 38.9343 35.8248 38.9342 35.8248 38.9342L40.6357 34.1233C41.0727 33.6863 41.7974 33.7463 42.1565 34.2492L50.3876 45.7726C50.6717 46.1704 50.6266 46.7152 50.2809 47.0609L48.0603 49.2815C48.0603 49.2816 48.0603 49.2817 48.0603 49.2818C48.0604 49.2818 48.0604 49.2819 48.0603 49.282L44.8956 52.4467C44.55 52.7923 44.0051 52.8374 43.6073 52.5533L32.0839 44.3223C31.581 43.9631 31.521 43.2384 31.958 42.8014L35.8248 38.9346C35.8249 38.9346 35.8249 38.9345 35.8248 38.9344Z" fill="url(#paint26_linear_124_1168)" fill-opacity="0.5"/>
<path d="M35.8248 38.9346L36.0369 39.1467L35.8248 38.9346ZM31.958 42.8014L32.1701 43.0136L31.958 42.8014ZM44.8956 52.4467L45.1078 52.6588L44.8956 52.4467ZM43.6073 52.5533L43.4329 52.7974L43.6073 52.5533ZM48.0603 49.282L48.2724 49.4941L48.0603 49.282ZM48.0603 49.2815L48.2724 49.4937L48.0603 49.2815ZM50.3876 45.7726L50.1434 45.9469L50.3876 45.7726ZM35.8248 38.9342L36.0369 39.1463L35.8248 38.9342ZM40.6357 34.1233L40.4236 33.9112L40.6357 34.1233ZM42.1565 34.2492L41.9124 34.4235L42.1565 34.2492ZM40.4236 33.9112L35.6127 38.722L36.0369 39.1463L40.8478 34.3354L40.4236 33.9112ZM50.6317 45.5982L42.4007 34.0748L41.9124 34.4235L50.1434 45.9469L50.6317 45.5982ZM48.2724 49.4937L50.4931 47.273L50.0688 46.8488L47.8482 49.0694L48.2724 49.4937ZM47.8482 49.0698L44.6835 52.2345L45.1078 52.6588L48.2724 49.4941L47.8482 49.0698ZM43.7816 52.3092L32.2582 44.0782L31.9095 44.5664L43.4329 52.7974L43.7816 52.3092ZM32.1701 43.0136L36.0369 39.1467L35.6127 38.7225L31.7459 42.5893L32.1701 43.0136ZM36.0369 39.1467C36.154 39.0297 36.1543 38.8396 36.0369 38.7223L35.6127 39.1465C35.4954 39.0293 35.4957 38.8394 35.6127 38.7225L36.0369 39.1467ZM32.2582 44.0782C31.9062 43.8267 31.8643 43.3194 32.1701 43.0136L31.7459 42.5893C31.1778 43.1573 31.2558 44.0995 31.9095 44.5664L32.2582 44.0782ZM44.6835 52.2345C44.4415 52.4765 44.0601 52.5081 43.7816 52.3092L43.4329 52.7974C43.95 53.1668 44.6584 53.1082 45.1078 52.6588L44.6835 52.2345ZM47.8482 49.4939C47.7311 49.3768 47.7311 49.1869 47.8482 49.0698L48.2724 49.4941C48.3897 49.3769 48.3897 49.1868 48.2724 49.0696L47.8482 49.4939ZM47.8482 49.0694C47.731 49.1866 47.731 49.3767 47.8482 49.4939L48.2724 49.0696C48.3895 49.1867 48.3895 49.3766 48.2724 49.4937L47.8482 49.0694ZM50.1434 45.9469C50.3423 46.2254 50.3108 46.6068 50.0688 46.8488L50.4931 47.273C50.9424 46.8237 51.0011 46.1153 50.6317 45.5982L50.1434 45.9469ZM35.6127 38.722C35.4957 38.8391 35.4953 39.0291 35.6127 39.1465L36.0369 38.7223C36.1542 38.8395 36.1539 39.0294 36.0369 39.1463L35.6127 38.722ZM40.8478 34.3354C41.1537 34.0296 41.661 34.0715 41.9124 34.4235L42.4007 34.0748C41.9337 33.4211 40.9916 33.3431 40.4236 33.9112L40.8478 34.3354Z" fill="url(#paint27_linear_124_1168)" mask="url(#path-27-inside-6_124_1168)"/>
</g>
<circle id="Ellipse 26_3" cx="24.7667" cy="10.6188" r="4.39824" transform="rotate(15 24.7667 10.6188)" fill="url(#paint28_linear_124_1168)" fill-opacity="0.7"/>
<rect id="Rectangle 2532_3" x="29.3072" y="42.55" width="15.8678" height="3.96695" rx="1.98347" transform="rotate(-45 29.3072 42.55)" fill="url(#paint29_linear_124_1168)"/>
</g>
<g id="Rectangle 2531_4">
<rect x="29.3072" y="42.55" width="15.8678" height="3.96695" rx="1.98347" transform="rotate(-45 29.3072 42.55)" fill="#D9D9D9"/>
<rect x="29.3072" y="42.55" width="15.8678" height="3.96695" rx="1.98347" transform="rotate(-45 29.3072 42.55)" fill="url(#paint30_linear_124_1168)"/>
</g>
<path id="Subtract_7" fill-rule="evenodd" clip-rule="evenodd" d="M44.3382 51.7945C44.5047 52.0763 44.709 52.342 44.9511 52.5841C46.5003 54.1333 49.012 54.1333 50.5612 52.5841C52.1104 51.0349 52.1104 48.5232 50.5612 46.974C50.3191 46.7319 50.0534 46.5276 49.7716 46.3611L44.3382 51.7945Z" fill="url(#paint31_linear_124_1168)"/>
<g id="Subtract_8">
<mask id="path-33-inside-7_124_1168" fill="white">
<path fill-rule="evenodd" clip-rule="evenodd" d="M39.2477 31.3577C39.5924 31.013 39.8063 30.5543 39.8054 30.0669C39.8001 27.0691 38.6538 24.0729 36.3665 21.7856C31.7813 17.2004 24.3472 17.2004 19.762 21.7856C15.1768 26.3708 15.1768 33.8049 19.762 38.3901C22.0493 40.6774 25.0455 41.8237 28.0433 41.829C28.5307 41.8299 28.9894 41.616 29.3341 41.2713L39.2477 31.3577Z"/>
</mask>
<g filter="url(#filter6_i_124_1168)">
<path fill-rule="evenodd" clip-rule="evenodd" d="M39.2477 31.3577C39.5924 31.013 39.8063 30.5543 39.8054 30.0669C39.8001 27.0691 38.6538 24.0729 36.3665 21.7856C31.7813 17.2004 24.3472 17.2004 19.762 21.7856C15.1768 26.3708 15.1768 33.8049 19.762 38.3901C22.0493 40.6774 25.0455 41.8237 28.0433 41.829C28.5307 41.8299 28.9894 41.616 29.3341 41.2713L39.2477 31.3577Z" fill="url(#paint32_linear_124_1168)" fill-opacity="0.5"/>
</g>
<path d="M28.0433 41.829L28.0428 42.129L28.0433 41.829ZM39.8054 30.0669L39.5054 30.0674L39.8054 30.0669ZM36.1544 21.9978C38.3833 24.2267 39.5002 27.1457 39.5054 30.0674L40.1054 30.0664C40.1 26.9924 38.9243 23.9191 36.5787 21.5735L36.1544 21.9978ZM19.9742 21.9978C24.4422 17.5297 31.6864 17.5297 36.1544 21.9978L36.5787 21.5735C31.8763 16.8711 24.2523 16.8711 19.5499 21.5735L19.9742 21.9978ZM19.9742 38.178C15.5061 33.71 15.5061 26.4658 19.9742 21.9978L19.5499 21.5735C14.8475 26.2759 14.8475 33.8999 19.5499 38.6023L19.9742 38.178ZM28.0438 41.529C25.1221 41.5238 22.203 40.4069 19.9742 38.178L19.5499 38.6023C21.8955 40.9479 24.9688 42.1236 28.0428 42.129L28.0438 41.529ZM29.5462 41.4834L39.4598 31.5698L39.0356 31.1456L29.122 41.0592L29.5462 41.4834ZM28.0428 42.129C28.6198 42.1301 29.1526 41.8771 29.5462 41.4834L29.122 41.0592C28.8263 41.3549 28.4416 41.5297 28.0438 41.529L28.0428 42.129ZM39.5054 30.0674C39.5061 30.4652 39.3313 30.8499 39.0356 31.1456L39.4598 31.5698C39.8535 31.1762 40.1065 30.6434 40.1054 30.0664L39.5054 30.0674Z" fill="url(#paint33_linear_124_1168)" mask="url(#path-33-inside-7_124_1168)"/>
</g>
<rect id="Rectangle 2536_4" x="25.3546" y="10.5029" width="7.78225" height="7.78225" rx="1" transform="rotate(-45 25.3546 10.5029)" fill="url(#paint34_linear_124_1168)"/>
<path id="Polygon 3_4" d="M12.1272 48.5578C11.3836 48.757 10.7032 48.0766 10.9024 47.333L12.7136 40.5738C12.9128 39.8302 13.8423 39.5812 14.3866 40.1255L19.3347 45.0736C19.8791 45.6179 19.63 46.5474 18.8864 46.7466L12.1272 48.5578Z" fill="url(#paint35_linear_124_1168)"/>
<g id="Union_4" filter="url(#filter7_b_124_1168)">
<mask id="path-37-inside-8_124_1168" fill="white">
<path fill-rule="evenodd" clip-rule="evenodd" d="M35.8248 38.9344C35.8248 38.9343 35.8248 38.9342 35.8248 38.9341L40.6357 34.1232C41.0727 33.6863 41.7974 33.7463 42.1566 34.2491L50.3876 45.7725C50.6717 46.1703 50.6266 46.7152 50.281 47.0609L48.0603 49.2815C48.0603 49.2816 48.0603 49.2817 48.0603 49.2817C48.0604 49.2818 48.0604 49.2819 48.0603 49.2819L44.8957 52.4466C44.55 52.7923 44.0051 52.8374 43.6073 52.5532L32.0839 44.3222C31.5811 43.9631 31.5211 43.2383 31.958 42.8014L35.8248 38.9346C35.8249 38.9345 35.8249 38.9344 35.8248 38.9344Z"/>
</mask>
<path fill-rule="evenodd" clip-rule="evenodd" d="M35.8248 38.9344C35.8248 38.9343 35.8248 38.9342 35.8248 38.9341L40.6357 34.1232C41.0727 33.6863 41.7974 33.7463 42.1566 34.2491L50.3876 45.7725C50.6717 46.1703 50.6266 46.7152 50.281 47.0609L48.0603 49.2815C48.0603 49.2816 48.0603 49.2817 48.0603 49.2817C48.0604 49.2818 48.0604 49.2819 48.0603 49.2819L44.8957 52.4466C44.55 52.7923 44.0051 52.8374 43.6073 52.5532L32.0839 44.3222C31.5811 43.9631 31.5211 43.2383 31.958 42.8014L35.8248 38.9346C35.8249 38.9345 35.8249 38.9344 35.8248 38.9344Z" fill="url(#paint36_linear_124_1168)" fill-opacity="0.5"/>
<path d="M35.8248 38.9346L36.037 39.1467L35.8248 38.9346ZM32.0839 44.3222L32.2583 44.0781L32.0839 44.3222ZM44.8957 52.4466L45.1078 52.6588L44.8957 52.4466ZM43.6073 52.5532L43.4329 52.7974L43.6073 52.5532ZM48.0603 49.2819L48.2725 49.4941L48.0603 49.2819ZM48.0603 49.2815L48.2725 49.4936L48.0603 49.2815ZM50.3876 45.7725L50.1435 45.9469L50.3876 45.7725ZM35.8248 38.9341L36.037 39.1463L35.8248 38.9341ZM40.6357 34.1232L40.4236 33.9111L40.6357 34.1232ZM42.1566 34.2491L41.9125 34.4235L42.1566 34.2491ZM40.4236 33.9111L35.6127 38.722L36.037 39.1463L40.8479 34.3354L40.4236 33.9111ZM50.6317 45.5982L42.4007 34.0747L41.9125 34.4235L50.1435 45.9469L50.6317 45.5982ZM48.2725 49.4936L50.4931 47.273L50.0688 46.8487L47.8482 49.0694L48.2725 49.4936ZM47.8482 49.0698L44.6835 52.2345L45.1078 52.6588L48.2725 49.4941L47.8482 49.0698ZM43.7817 52.3091L32.2583 44.0781L31.9095 44.5664L43.4329 52.7974L43.7817 52.3091ZM32.1702 43.0135L36.037 39.1467L35.6127 38.7224L31.7459 42.5893L32.1702 43.0135ZM36.037 39.1467C36.1541 39.0296 36.1543 38.8396 36.037 38.7222L35.6127 39.1465C35.4955 39.0293 35.4958 38.8394 35.6127 38.7224L36.037 39.1467ZM32.2583 44.0781C31.9063 43.8267 31.8643 43.3194 32.1702 43.0135L31.7459 42.5893C31.1779 43.1573 31.2558 44.0994 31.9095 44.5664L32.2583 44.0781ZM44.6835 52.2345C44.4416 52.4765 44.0601 52.508 43.7817 52.3091L43.4329 52.7974C43.9501 53.1667 44.6584 53.1081 45.1078 52.6588L44.6835 52.2345ZM47.8482 49.4938C47.7311 49.3767 47.7311 49.1869 47.8482 49.0698L48.2725 49.4941C48.3897 49.3768 48.3897 49.1868 48.2725 49.0696L47.8482 49.4938ZM47.8482 49.0694C47.731 49.1866 47.731 49.3766 47.8482 49.4938L48.2725 49.0696C48.3896 49.1867 48.3896 49.3765 48.2725 49.4936L47.8482 49.0694ZM50.1435 45.9469C50.3424 46.2253 50.3108 46.6068 50.0688 46.8487L50.4931 47.273C50.9425 46.8236 51.0011 46.1153 50.6317 45.5982L50.1435 45.9469ZM35.6127 38.722C35.4957 38.839 35.4953 39.0291 35.6127 39.1465L36.037 38.7222C36.1543 38.8395 36.1539 39.0294 36.037 39.1463L35.6127 38.722ZM40.8479 34.3354C41.1537 34.0295 41.661 34.0715 41.9125 34.4235L42.4007 34.0747C41.9338 33.4211 40.9916 33.3431 40.4236 33.9111L40.8479 34.3354Z" fill="url(#paint37_linear_124_1168)" mask="url(#path-37-inside-8_124_1168)"/>
</g>
<circle id="Ellipse 26_4" cx="24.7666" cy="10.6189" r="4.39824" transform="rotate(15 24.7666 10.6189)" fill="url(#paint38_linear_124_1168)" fill-opacity="0.7"/>
<rect id="Rectangle 2532_4" x="29.3072" y="42.55" width="15.8678" height="3.96695" rx="1.98347" transform="rotate(-45 29.3072 42.55)" fill="url(#paint39_linear_124_1168)"/>
</g>
</g>
</g>
<defs>
<filter id="filter0_i_124_1168" x="15.14" y="17.3467" width="24.4823" height="24.4823" filterUnits="userSpaceOnUse" color-interpolation-filters="sRGB">
<feFlood flood-opacity="0" result="BackgroundImageFix"/>
<feBlend mode="normal" in="SourceGraphic" in2="BackgroundImageFix" result="shape"/>
<feColorMatrix in="SourceAlpha" type="matrix" values="0 0 0 0 0 0 0 0 0 0 0 0 0 0 0 0 0 0 127 0" result="hardAlpha"/>
<feOffset dx="-1" dy="-1"/>
<feGaussianBlur stdDeviation="2"/>
<feComposite in2="hardAlpha" operator="arithmetic" k2="-1" k3="1"/>
<feColorMatrix type="matrix" values="0 0 0 0 0.419608 0 0 0 0 0.682353 0 0 0 0 0.835294 0 0 0 1 0"/>
<feBlend mode="normal" in2="shape" result="effect1_innerShadow_124_1168"/>
</filter>
<filter id="filter1_b_124_1168" x="28.482" y="30.8304" width="24.9088" height="24.9092" filterUnits="userSpaceOnUse" color-interpolation-filters="sRGB">
<feFlood flood-opacity="0" result="BackgroundImageFix"/>
<feGaussianBlur in="BackgroundImageFix" stdDeviation="1.5"/>
<feComposite in2="SourceAlpha" operator="in" result="effect1_backgroundBlur_124_1168"/>
<feBlend mode="normal" in="SourceGraphic" in2="effect1_backgroundBlur_124_1168" result="shape"/>
</filter>
<filter id="filter2_i_124_1168" x="15.14" y="17.3467" width="24.4823" height="24.4823" filterUnits="userSpaceOnUse" color-interpolation-filters="sRGB">
<feFlood flood-opacity="0" result="BackgroundImageFix"/>
<feBlend mode="normal" in="SourceGraphic" in2="BackgroundImageFix" result="shape"/>
<feColorMatrix in="SourceAlpha" type="matrix" values="0 0 0 0 0 0 0 0 0 0 0 0 0 0 0 0 0 0 127 0" result="hardAlpha"/>
<feOffset dx="-1" dy="-1"/>
<feGaussianBlur stdDeviation="2"/>
<feComposite in2="hardAlpha" operator="arithmetic" k2="-1" k3="1"/>
<feColorMatrix type="matrix" values="0 0 0 0 0.419608 0 0 0 0 0.682353 0 0 0 0 0.835294 0 0 0 1 0"/>
<feBlend mode="normal" in2="shape" result="effect1_innerShadow_124_1168"/>
</filter>
<filter id="filter3_b_124_1168" x="28.482" y="30.8303" width="24.9088" height="24.9092" filterUnits="userSpaceOnUse" color-interpolation-filters="sRGB">
<feFlood flood-opacity="0" result="BackgroundImageFix"/>
<feGaussianBlur in="BackgroundImageFix" stdDeviation="1.5"/>
<feComposite in2="SourceAlpha" operator="in" result="effect1_backgroundBlur_124_1168"/>
<feBlend mode="normal" in="SourceGraphic" in2="effect1_backgroundBlur_124_1168" result="shape"/>
</filter>
<filter id="filter4_i_124_1168" x="15.3232" y="17.3467" width="24.4823" height="24.4823" filterUnits="userSpaceOnUse" color-interpolation-filters="sRGB">
<feFlood flood-opacity="0" result="BackgroundImageFix"/>
<feBlend mode="normal" in="SourceGraphic" in2="BackgroundImageFix" result="shape"/>
<feColorMatrix in="SourceAlpha" type="matrix" values="0 0 0 0 0 0 0 0 0 0 0 0 0 0 0 0 0 0 127 0" result="hardAlpha"/>
<feOffset dx="-1" dy="-1"/>
<feGaussianBlur stdDeviation="2"/>
<feComposite in2="hardAlpha" operator="arithmetic" k2="-1" k3="1"/>
<feColorMatrix type="matrix" values="0 0 0 0 0.419608 0 0 0 0 0.682353 0 0 0 0 0.835294 0 0 0 1 0"/>
<feBlend mode="normal" in2="shape" result="effect1_innerShadow_124_1168"/>
</filter>
<filter id="filter5_b_124_1168" x="28.6651" y="30.8304" width="24.9088" height="24.9092" filterUnits="userSpaceOnUse" color-interpolation-filters="sRGB">
<feFlood flood-opacity="0" result="BackgroundImageFix"/>
<feGaussianBlur in="BackgroundImageFix" stdDeviation="1.5"/>
<feComposite in2="SourceAlpha" operator="in" result="effect1_backgroundBlur_124_1168"/>
<feBlend mode="normal" in="SourceGraphic" in2="effect1_backgroundBlur_124_1168" result="shape"/>
</filter>
<filter id="filter6_i_124_1168" x="15.3231" y="17.3467" width="24.4823" height="24.4823" filterUnits="userSpaceOnUse" color-interpolation-filters="sRGB">
<feFlood flood-opacity="0" result="BackgroundImageFix"/>
<feBlend mode="normal" in="SourceGraphic" in2="BackgroundImageFix" result="shape"/>
<feColorMatrix in="SourceAlpha" type="matrix" values="0 0 0 0 0 0 0 0 0 0 0 0 0 0 0 0 0 0 127 0" result="hardAlpha"/>
<feOffset dx="-1" dy="-1"/>
<feGaussianBlur stdDeviation="2"/>
<feComposite in2="hardAlpha" operator="arithmetic" k2="-1" k3="1"/>
<feColorMatrix type="matrix" values="0 0 0 0 0.419608 0 0 0 0 0.682353 0 0 0 0 0.835294 0 0 0 1 0"/>
<feBlend mode="normal" in2="shape" result="effect1_innerShadow_124_1168"/>
</filter>
<filter id="filter7_b_124_1168" x="28.6651" y="30.8303" width="24.9088" height="24.9092" filterUnits="userSpaceOnUse" color-interpolation-filters="sRGB">
<feFlood flood-opacity="0" result="BackgroundImageFix"/>
<feGaussianBlur in="BackgroundImageFix" stdDeviation="1.5"/>
<feComposite in2="SourceAlpha" operator="in" result="effect1_backgroundBlur_124_1168"/>
<feBlend mode="normal" in="SourceGraphic" in2="effect1_backgroundBlur_124_1168" result="shape"/>
</filter>
<linearGradient id="paint0_linear_124_1168" x1="28.5138" y1="43.0458" x2="34.3073" y2="51.7335" gradientUnits="userSpaceOnUse">
<stop stop-color="#C3EFFB"/>
<stop offset="1" stop-color="#4FB6FB"/>
</linearGradient>
<linearGradient id="paint1_linear_124_1168" x1="48.14" y1="57.4519" x2="42.7935" y2="54.1824" gradientUnits="userSpaceOnUse">
<stop stop-color="#047FFE"/>
<stop offset="1" stop-color="#67C5FA"/>
</linearGradient>
<linearGradient id="paint2_linear_124_1168" x1="25.1855" y1="-3.66497" x2="52.0965" y2="10.7927" gradientUnits="userSpaceOnUse">
<stop offset="0.32" stop-color="#047FFE"/>
<stop offset="1" stop-color="#ADE5FC" stop-opacity="0"/>
</linearGradient>
<linearGradient id="paint3_linear_124_1168" x1="44.0732" y1="29.7033" x2="15.5714" y2="27.3313" gradientUnits="userSpaceOnUse">
<stop stop-color="#C3E3FE" stop-opacity="0.1"/>
<stop offset="1" stop-color="#0C86FE" stop-opacity="0.5"/>
</linearGradient>
<linearGradient id="paint4_linear_124_1168" x1="28.3722" y1="19.0317" x2="32.0576" y2="10.123" gradientUnits="userSpaceOnUse">
<stop stop-color="#047FFE"/>
<stop offset="1" stop-color="#047FFE" stop-opacity="0"/>
</linearGradient>
<linearGradient id="paint5_linear_124_1168" x1="12.4066" y1="35.4813" x2="25.2197" y2="44.7352" gradientUnits="userSpaceOnUse">
<stop stop-color="#0E7AEB"/>
<stop offset="0.0001" stop-color="#007DFF"/>
<stop offset="1" stop-color="#00D0EC" stop-opacity="0"/>
</linearGradient>
<linearGradient id="paint6_linear_124_1168" x1="28.6831" y1="16.492" x2="55.1832" y2="42.9919" gradientUnits="userSpaceOnUse">
<stop stop-color="#2294FD"/>
<stop offset="1" stop-color="#5CBDFB" stop-opacity="0"/>
</linearGradient>
<linearGradient id="paint7_linear_124_1168" x1="33.6454" y1="42.3049" x2="48.8733" y2="56.3822" gradientUnits="userSpaceOnUse">
<stop stop-color="#C3E3FE" stop-opacity="0.1"/>
<stop offset="1" stop-color="#0C86FE" stop-opacity="0.5"/>
</linearGradient>
<linearGradient id="paint8_linear_124_1168" x1="24.0072" y1="3.30606" x2="24.7858" y2="19.1147" gradientUnits="userSpaceOnUse">
<stop stop-color="#00BAFF"/>
<stop offset="1" stop-color="#00BAFF" stop-opacity="0"/>
</linearGradient>
<linearGradient id="paint9_linear_124_1168" x1="23.9037" y1="40.7829" x2="29.6251" y2="33.2909" gradientUnits="userSpaceOnUse">
<stop stop-color="#047FFE"/>
<stop offset="1" stop-color="#67C5FA"/>
</linearGradient>
<linearGradient id="paint10_linear_124_1168" x1="28.5138" y1="43.0459" x2="34.3073" y2="51.7335" gradientUnits="userSpaceOnUse">
<stop stop-color="#C3EFFB"/>
<stop offset="1" stop-color="#4FB6FB"/>
</linearGradient>
<linearGradient id="paint11_linear_124_1168" x1="48.1399" y1="57.452" x2="42.7934" y2="54.1825" gradientUnits="userSpaceOnUse">
<stop stop-color="#047FFE"/>
<stop offset="1" stop-color="#00D0EC"/>
</linearGradient>
<linearGradient id="paint12_linear_124_1168" x1="25.1855" y1="-3.66497" x2="52.0964" y2="10.7927" gradientUnits="userSpaceOnUse">
<stop offset="0.32" stop-color="#047FFE"/>
<stop offset="1" stop-color="#80D0EC" stop-opacity="0"/>
</linearGradient>
<linearGradient id="paint13_linear_124_1168" x1="44.0732" y1="29.7033" x2="15.5714" y2="27.3313" gradientUnits="userSpaceOnUse">
<stop stop-color="#80D0EC" stop-opacity="0.1"/>
<stop offset="1" stop-color="#047FFE" stop-opacity="0.5"/>
</linearGradient>
<linearGradient id="paint14_linear_124_1168" x1="28.3722" y1="19.0318" x2="32.0576" y2="10.1231" gradientUnits="userSpaceOnUse">
<stop stop-color="#047FFE"/>
<stop offset="1" stop-color="#047FFE" stop-opacity="0"/>
</linearGradient>
<linearGradient id="paint15_linear_124_1168" x1="12.4065" y1="35.4812" x2="25.2196" y2="44.7351" gradientUnits="userSpaceOnUse">
<stop stop-color="#047FFE"/>
<stop offset="0.0001" stop-color="#007DFF"/>
<stop offset="1" stop-color="#00D0EC" stop-opacity="0"/>
</linearGradient>
<linearGradient id="paint16_linear_124_1168" x1="28.6832" y1="16.4919" x2="55.1832" y2="42.9919" gradientUnits="userSpaceOnUse">
<stop stop-color="#047FFE"/>
<stop offset="1" stop-color="#0E7AEB" stop-opacity="0"/>
<stop offset="1" stop-color="#047FFE" stop-opacity="0"/>
</linearGradient>
<linearGradient id="paint17_linear_124_1168" x1="33.6455" y1="42.3049" x2="48.8733" y2="56.3822" gradientUnits="userSpaceOnUse">
<stop stop-color="#80D0EC" stop-opacity="0.1"/>
<stop offset="1" stop-color="#047FFE" stop-opacity="0.5"/>
</linearGradient>
<linearGradient id="paint18_linear_124_1168" x1="24.0071" y1="3.3062" x2="24.7857" y2="19.1149" gradientUnits="userSpaceOnUse">
<stop stop-color="#00D0EC"/>
<stop offset="1" stop-color="#00D0EC" stop-opacity="0"/>
</linearGradient>
<linearGradient id="paint19_linear_124_1168" x1="23.9036" y1="40.783" x2="29.6251" y2="33.291" gradientUnits="userSpaceOnUse">
<stop stop-color="#047FFE"/>
<stop offset="0.0001" stop-color="#0E7AEB"/>
<stop offset="1" stop-color="#00D0EC"/>
</linearGradient>
<linearGradient id="paint20_linear_124_1168" x1="28.6969" y1="43.0458" x2="34.4904" y2="51.7335" gradientUnits="userSpaceOnUse">
<stop stop-color="#C3EFFB"/>
<stop offset="1" stop-color="#4FB6FB"/>
</linearGradient>
<linearGradient id="paint21_linear_124_1168" x1="48.3231" y1="57.4519" x2="42.9766" y2="54.1824" gradientUnits="userSpaceOnUse">
<stop stop-color="#047FFE"/>
<stop offset="1" stop-color="#67C5FA"/>
</linearGradient>
<linearGradient id="paint22_linear_124_1168" x1="25.3686" y1="-3.66497" x2="52.2796" y2="10.7927" gradientUnits="userSpaceOnUse">
<stop offset="0.32" stop-color="#047FFE"/>
<stop offset="1" stop-color="#ADE5FC" stop-opacity="0"/>
</linearGradient>
<linearGradient id="paint23_linear_124_1168" x1="44.2563" y1="29.7033" x2="15.7545" y2="27.3313" gradientUnits="userSpaceOnUse">
<stop stop-color="#C3E3FE" stop-opacity="0.1"/>
<stop offset="1" stop-color="#0C86FE" stop-opacity="0.5"/>
</linearGradient>
<linearGradient id="paint24_linear_124_1168" x1="28.5553" y1="19.0317" x2="32.2408" y2="10.123" gradientUnits="userSpaceOnUse">
<stop stop-color="#047FFE"/>
<stop offset="1" stop-color="#047FFE" stop-opacity="0"/>
</linearGradient>
<linearGradient id="paint25_linear_124_1168" x1="12.5897" y1="35.4813" x2="25.4028" y2="44.7352" gradientUnits="userSpaceOnUse">
<stop stop-color="#0E7AEB"/>
<stop offset="0.0001" stop-color="#007DFF"/>
<stop offset="1" stop-color="#00D0EC" stop-opacity="0"/>
</linearGradient>
<linearGradient id="paint26_linear_124_1168" x1="28.8662" y1="16.492" x2="55.3663" y2="42.9919" gradientUnits="userSpaceOnUse">
<stop stop-color="#2294FD"/>
<stop offset="1" stop-color="#5CBDFB" stop-opacity="0"/>
</linearGradient>
<linearGradient id="paint27_linear_124_1168" x1="33.8286" y1="42.3049" x2="49.0564" y2="56.3822" gradientUnits="userSpaceOnUse">
<stop stop-color="#C3E3FE" stop-opacity="0.1"/>
<stop offset="1" stop-color="#0C86FE" stop-opacity="0.5"/>
</linearGradient>
<linearGradient id="paint28_linear_124_1168" x1="24.1903" y1="3.30606" x2="24.9689" y2="19.1147" gradientUnits="userSpaceOnUse">
<stop stop-color="#00BAFF"/>
<stop offset="1" stop-color="#00BAFF" stop-opacity="0"/>
</linearGradient>
<linearGradient id="paint29_linear_124_1168" x1="24.0868" y1="40.7829" x2="29.8082" y2="33.2909" gradientUnits="userSpaceOnUse">
<stop stop-color="#047FFE"/>
<stop offset="1" stop-color="#67C5FA"/>
</linearGradient>
<linearGradient id="paint30_linear_124_1168" x1="28.6969" y1="43.0459" x2="34.4904" y2="51.7335" gradientUnits="userSpaceOnUse">
<stop stop-color="#C3EFFB"/>
<stop offset="1" stop-color="#4FB6FB"/>
</linearGradient>
<linearGradient id="paint31_linear_124_1168" x1="48.323" y1="57.452" x2="42.9766" y2="54.1825" gradientUnits="userSpaceOnUse">
<stop stop-color="#047FFE"/>
<stop offset="1" stop-color="#00D0EC"/>
</linearGradient>
<linearGradient id="paint32_linear_124_1168" x1="25.3686" y1="-3.66497" x2="52.2795" y2="10.7927" gradientUnits="userSpaceOnUse">
<stop offset="0.32" stop-color="#047FFE"/>
<stop offset="1" stop-color="#80D0EC" stop-opacity="0"/>
</linearGradient>
<linearGradient id="paint33_linear_124_1168" x1="44.2563" y1="29.7033" x2="15.7545" y2="27.3313" gradientUnits="userSpaceOnUse">
<stop stop-color="#80D0EC" stop-opacity="0.1"/>
<stop offset="1" stop-color="#047FFE" stop-opacity="0.5"/>
</linearGradient>
<linearGradient id="paint34_linear_124_1168" x1="28.5553" y1="19.0318" x2="32.2408" y2="10.1231" gradientUnits="userSpaceOnUse">
<stop stop-color="#047FFE"/>
<stop offset="1" stop-color="#047FFE" stop-opacity="0"/>
</linearGradient>
<linearGradient id="paint35_linear_124_1168" x1="12.5896" y1="35.4812" x2="25.4027" y2="44.7351" gradientUnits="userSpaceOnUse">
<stop stop-color="#047FFE"/>
<stop offset="0.0001" stop-color="#007DFF"/>
<stop offset="1" stop-color="#00D0EC" stop-opacity="0"/>
</linearGradient>
<linearGradient id="paint36_linear_124_1168" x1="28.8663" y1="16.4919" x2="55.3663" y2="42.9919" gradientUnits="userSpaceOnUse">
<stop stop-color="#047FFE"/>
<stop offset="1" stop-color="#0E7AEB" stop-opacity="0"/>
<stop offset="1" stop-color="#047FFE" stop-opacity="0"/>
</linearGradient>
<linearGradient id="paint37_linear_124_1168" x1="33.8286" y1="42.3049" x2="49.0564" y2="56.3822" gradientUnits="userSpaceOnUse">
<stop stop-color="#80D0EC" stop-opacity="0.1"/>
<stop offset="1" stop-color="#047FFE" stop-opacity="0.5"/>
</linearGradient>
<linearGradient id="paint38_linear_124_1168" x1="24.1902" y1="3.3062" x2="24.9688" y2="19.1149" gradientUnits="userSpaceOnUse">
<stop stop-color="#00D0EC"/>
<stop offset="1" stop-color="#00D0EC" stop-opacity="0"/>
</linearGradient>
<linearGradient id="paint39_linear_124_1168" x1="24.0868" y1="40.783" x2="29.8082" y2="33.291" gradientUnits="userSpaceOnUse">
<stop stop-color="#047FFE"/>
<stop offset="0.0001" stop-color="#0E7AEB"/>
<stop offset="1" stop-color="#00D0EC"/>
</linearGradient>
</defs>
</svg>
