<svg width="35" height="35" viewBox="0 0 35 35" fill="none" xmlns="http://www.w3.org/2000/svg">
<g id="Group 241">
<g id="Group 237">
<path id="Union" d="M19 23.5H20C20 22.9477 19.5523 22.5 19 22.5V23.5ZM15 23.5V22.5C14.4477 22.5 14 22.9477 14 23.5H15ZM13 5C8.02944 5 4 9.02944 4 14H6C6 10.134 9.13401 7 13 7V5ZM21 5H13V7H21V5ZM30 14C30 9.02944 25.9706 5 21 5V7C24.866 7 28 10.134 28 14H30ZM30 23.5V14H28V23.5H30ZM28 23.5C28 25.7091 26.2091 27.5 24 27.5V29.5C27.3137 29.5 30 26.8137 30 23.5H28ZM24 27.5C21.7909 27.5 20 25.7091 20 23.5H18C18 26.8137 20.6863 29.5 24 29.5V27.5ZM15 24.5H19V22.5H15V24.5ZM10 29.5C13.3137 29.5 16 26.8137 16 23.5H14C14 25.7091 12.2091 27.5 10 27.5V29.5ZM4 23.5C4 26.8137 6.68629 29.5 10 29.5V27.5C7.79086 27.5 6 25.7091 6 23.5H4ZM4 14V23.5H6V14H4Z" fill="#B67E5C"/>
<g id="Group 236">
<g id="Group 238">
<g id="Group 235">
<path id="Vector 76" d="M9 13.0715L14.1429 18.2143" stroke="#B67E5C" stroke-width="2" stroke-linecap="round"/>
<path id="Vector 77" d="M14.1435 13.0715L9.00063 18.2143" stroke="#B67E5C" stroke-width="2" stroke-linecap="round"/>
</g>
<circle id="Ellipse 57" cx="22.5714" cy="15.6429" r="2.57143" fill="#FBE6BF" stroke="#B67E5C" stroke-width="2"/>
</g>
</g>
</g>
</g>
</svg>
